<svg width="780" height="641" viewBox="0 0 780 641" fill="none" xmlns="http://www.w3.org/2000/svg">
<rect x="1" y="201" width="101" height="100" stroke="#ECAAB6" stroke-width="2"/>
<rect width="779" height="59" fill="#ECAAB6"/>
<rect x="8" y="256" width="13" height="13" fill="#7A6DA0"/>
<rect x="574" y="368" width="13" height="13" fill="#A5E5E9"/>
<rect x="460" y="124" width="13" height="13" fill="#A5E5E9"/>
<rect x="349" y="368" width="13" height="13" fill="#7A6DA0"/>
<rect x="9" y="478" width="13" height="13" fill="#FF9548"/>
<rect x="8" y="277" width="13" height="13" fill="#94AB51"/>
<rect x="9" y="499" width="13" height="13" fill="#7A6DA0"/>
<rect x="1" y="88" width="101" height="101" stroke="#ECAAB6" stroke-width="2"/>
<rect x="1" y="313" width="101" height="101" stroke="#ECAAB6" stroke-width="2"/>
<rect x="1" y="427" width="101" height="99" stroke="#ECAAB6" stroke-width="2"/>
<rect x="114" y="88" width="101" height="101" stroke="#ECAAB6" stroke-width="2"/>
<rect x="114" y="313" width="101" height="101" stroke="#ECAAB6" stroke-width="2"/>
<rect x="114" y="201" width="101" height="100" stroke="#ECAAB6" stroke-width="2"/>
<rect x="114" y="427" width="101" height="99" stroke="#ECAAB6" stroke-width="2"/>
<rect x="227" y="88" width="100" height="101" stroke="#ECAAB6" stroke-width="2"/>
<rect x="227" y="313" width="100" height="101" stroke="#ECAAB6" stroke-width="2"/>
<rect x="227" y="201" width="100" height="100" stroke="#ECAAB6" stroke-width="2"/>
<rect x="227" y="427" width="100" height="99" stroke="#ECAAB6" stroke-width="2"/>
<rect x="340" y="88" width="100" height="101" stroke="#ECAAB6" stroke-width="2"/>
<rect x="340" y="313" width="100" height="101" stroke="#ECAAB6" stroke-width="2"/>
<rect x="340" y="201" width="100" height="100" stroke="#ECAAB6" stroke-width="2"/>
<rect x="340" y="427" width="100" height="99" stroke="#ECAAB6" stroke-width="2"/>
<rect x="453" y="88" width="100" height="101" stroke="#ECAAB6" stroke-width="2"/>
<rect x="453" y="313" width="100" height="101" stroke="#ECAAB6" stroke-width="2"/>
<rect x="453" y="201" width="100" height="100" stroke="#ECAAB6" stroke-width="2"/>
<rect x="453" y="427" width="100" height="99" stroke="#ECAAB6" stroke-width="2"/>
<rect x="565" y="88" width="101" height="101" stroke="#ECAAB6" stroke-width="2"/>
<rect x="565" y="313" width="101" height="101" stroke="#ECAAB6" stroke-width="2"/>
<rect x="565" y="201" width="101" height="100" stroke="#ECAAB6" stroke-width="2"/>
<rect x="565" y="427" width="101" height="99" stroke="#ECAAB6" stroke-width="2"/>
<rect x="1" y="539" width="101" height="101" stroke="#ECAAB6" stroke-width="2"/>
<rect x="678" y="88" width="101" height="101" stroke="#ECAAB6" stroke-width="2"/>
<rect x="678" y="313" width="101" height="101" fill="white" fill-opacity="0.33" stroke="#ECAAB6" stroke-width="2"/>
<rect x="678" y="201" width="101" height="100" stroke="#ECAAB6" stroke-width="2"/>
<rect x="678" y="427" width="101" height="99" stroke="#ECAAB6" stroke-width="2"/>
<rect x="114" y="539" width="101" height="101" stroke="#ECAAB6" stroke-width="2"/>
<rect x="227" y="539" width="101" height="101" stroke="#ECAAB6" stroke-width="2"/>
<path d="M26.4382 36V22.9091H28.4134V34.2997H34.3452V36H26.4382ZM42.6644 31.9283V26.1818H44.582V36H42.7028V34.2997H42.6005C42.3746 34.8239 42.0124 35.2607 41.5138 35.6101C41.0195 35.9553 40.4038 36.1278 39.6665 36.1278C39.0359 36.1278 38.4776 35.9893 37.9918 35.7124C37.5103 35.4311 37.131 35.0156 36.854 34.4659C36.5813 33.9162 36.445 33.2365 36.445 32.4268V26.1818H38.3562V32.1967C38.3562 32.8658 38.5415 33.3984 38.9123 33.7947C39.283 34.1911 39.7646 34.3892 40.3569 34.3892C40.7148 34.3892 41.0707 34.2997 41.4244 34.1207C41.7823 33.9418 42.0785 33.6712 42.3129 33.3089C42.5515 32.9467 42.6687 32.4865 42.6644 31.9283ZM49.0613 30.1705V36H47.15V26.1818H48.9846V27.7798H49.106C49.3319 27.2599 49.6855 26.8423 50.1671 26.527C50.6529 26.2116 51.2644 26.054 52.0016 26.054C52.6706 26.054 53.2566 26.1946 53.7594 26.4759C54.2623 26.7528 54.6522 27.1662 54.9292 27.7159C55.2061 28.2656 55.3446 28.9453 55.3446 29.755V36H53.4334V29.9851C53.4334 29.2734 53.248 28.7173 52.8773 28.3168C52.5066 27.9119 51.9973 27.7095 51.3496 27.7095C50.9064 27.7095 50.5123 27.8054 50.1671 27.9972C49.8262 28.1889 49.5556 28.4702 49.3553 28.8409C49.1593 29.2074 49.0613 29.6506 49.0613 30.1705ZM62.1394 36.1982C61.1721 36.1982 60.339 35.9915 59.6401 35.5781C58.9455 35.1605 58.4086 34.5746 58.0293 33.8203C57.6543 33.0618 57.4668 32.1733 57.4668 31.1548C57.4668 30.1491 57.6543 29.2628 58.0293 28.4957C58.4086 27.7287 58.937 27.13 59.6145 26.6996C60.2963 26.2692 61.0932 26.054 62.0051 26.054C62.5591 26.054 63.0961 26.1456 63.6159 26.3288C64.1358 26.5121 64.6025 26.7997 65.0158 27.1918C65.4292 27.5838 65.7551 28.093 65.9938 28.7195C66.2324 29.3416 66.3517 30.098 66.3517 30.9886V31.6662H58.5471V30.2344H64.4789C64.4789 29.7315 64.3766 29.2862 64.1721 28.8984C63.9675 28.5064 63.6799 28.1974 63.3091 27.9716C62.9426 27.7457 62.5123 27.6328 62.0179 27.6328C61.481 27.6328 61.0123 27.7649 60.6117 28.0291C60.2154 28.2891 59.9086 28.63 59.6912 29.0518C59.4782 29.4695 59.3716 29.9233 59.3716 30.4134V31.532C59.3716 32.1882 59.4867 32.7464 59.7168 33.2067C59.9512 33.6669 60.2772 34.0185 60.6948 34.2614C61.1124 34.5 61.6003 34.6193 62.1586 34.6193C62.5208 34.6193 62.851 34.5682 63.1493 34.4659C63.4476 34.3594 63.7054 34.2017 63.9228 33.9929C64.1401 33.7841 64.3063 33.5263 64.4213 33.2195L66.2303 33.5455C66.0854 34.0781 65.8255 34.5447 65.4505 34.9453C65.0797 35.3416 64.6131 35.6506 64.0506 35.8722C63.4924 36.0895 62.8553 36.1982 62.1394 36.1982ZM75.8295 28.5788L74.0973 28.8857C74.0249 28.6641 73.9098 28.4531 73.7521 28.2528C73.5987 28.0526 73.3899 27.8885 73.1257 27.7607C72.8615 27.6328 72.5313 27.5689 72.1349 27.5689C71.5938 27.5689 71.142 27.6903 70.7798 27.9332C70.4176 28.1719 70.2365 28.4808 70.2365 28.8601C70.2365 29.1882 70.358 29.4524 70.6009 29.6527C70.8438 29.853 71.2358 30.017 71.777 30.1449L73.3366 30.5028C74.2401 30.7116 74.9134 31.0334 75.3565 31.468C75.7997 31.9027 76.0213 32.4673 76.0213 33.1619C76.0213 33.75 75.8509 34.2741 75.5099 34.7344C75.1733 35.1903 74.7024 35.5483 74.0973 35.8082C73.4964 36.0682 72.7997 36.1982 72.0071 36.1982C70.9077 36.1982 70.0107 35.9638 69.3161 35.495C68.6214 35.022 68.1953 34.3509 68.0376 33.4815L69.8849 33.2003C70 33.6818 70.2365 34.0462 70.5945 34.2933C70.9524 34.5362 71.419 34.6577 71.9943 34.6577C72.6207 34.6577 73.1214 34.5277 73.4964 34.2678C73.8714 34.0036 74.0589 33.6818 74.0589 33.3026C74.0589 32.9957 73.9439 32.7379 73.7138 32.5291C73.4879 32.3203 73.1406 32.1626 72.6719 32.0561L71.0099 31.6918C70.0938 31.483 69.4162 31.1506 68.9773 30.6946C68.5426 30.2386 68.3253 29.6612 68.3253 28.9624C68.3253 28.3828 68.4872 27.8757 68.8111 27.4411C69.1349 27.0064 69.5824 26.6676 70.1534 26.4247C70.7244 26.1776 71.3786 26.054 72.1158 26.054C73.1768 26.054 74.0121 26.2841 74.6214 26.7443C75.2308 27.2003 75.6335 27.8118 75.8295 28.5788Z" fill="#FCF4F5"/>
<path d="M135.438 22.9091H137.835L142.003 33.0852H142.156L146.324 22.9091H148.721V36H146.842V26.527H146.72L142.859 35.9808H141.3L137.439 26.5206H137.317V36H135.438V22.9091ZM154.296 36.2173C153.674 36.2173 153.112 36.1023 152.609 35.8722C152.106 35.6378 151.708 35.299 151.414 34.8558C151.124 34.4126 150.979 33.8693 150.979 33.2259C150.979 32.6719 151.085 32.2159 151.298 31.858C151.512 31.5 151.799 31.2166 152.161 31.0078C152.524 30.799 152.928 30.6413 153.376 30.5348C153.823 30.4283 154.279 30.3473 154.744 30.2919C155.332 30.2237 155.809 30.1683 156.176 30.1257C156.542 30.0788 156.808 30.0043 156.975 29.902C157.141 29.7997 157.224 29.6335 157.224 29.4034V29.3587C157.224 28.8004 157.066 28.3679 156.751 28.0611C156.44 27.7543 155.975 27.6009 155.357 27.6009C154.714 27.6009 154.207 27.7436 153.836 28.0291C153.47 28.3104 153.216 28.6236 153.075 28.9688L151.279 28.5597C151.492 27.9631 151.803 27.4815 152.213 27.1151C152.626 26.7443 153.101 26.4759 153.638 26.3097C154.175 26.1392 154.74 26.054 155.332 26.054C155.724 26.054 156.139 26.1009 156.578 26.1946C157.021 26.2841 157.435 26.4503 157.818 26.6932C158.206 26.9361 158.524 27.2834 158.771 27.7351C159.018 28.1825 159.142 28.7642 159.142 29.4801V36H157.275V34.6577H157.198C157.075 34.9048 156.889 35.1477 156.642 35.3864C156.395 35.625 156.078 35.8232 155.69 35.9808C155.302 36.1385 154.838 36.2173 154.296 36.2173ZM154.712 34.6832C155.24 34.6832 155.692 34.5788 156.067 34.37C156.446 34.1612 156.734 33.8885 156.93 33.5518C157.13 33.2109 157.23 32.8466 157.23 32.4588V31.1932C157.162 31.2614 157.03 31.3253 156.834 31.3849C156.642 31.4403 156.423 31.4893 156.176 31.532C155.928 31.5703 155.688 31.6065 155.453 31.6406C155.219 31.6705 155.023 31.696 154.865 31.7173C154.494 31.7642 154.156 31.843 153.849 31.9538C153.546 32.0646 153.303 32.2244 153.12 32.4332C152.941 32.6378 152.852 32.9105 152.852 33.2514C152.852 33.7244 153.026 34.0824 153.376 34.3253C153.725 34.5639 154.171 34.6832 154.712 34.6832ZM161.687 36V26.1818H163.534V27.7415H163.637C163.816 27.2131 164.131 26.7976 164.583 26.495C165.039 26.1882 165.554 26.0348 166.13 26.0348C166.249 26.0348 166.39 26.0391 166.551 26.0476C166.718 26.0561 166.848 26.0668 166.941 26.0795V27.9077C166.865 27.8864 166.728 27.8629 166.532 27.8374C166.336 27.8075 166.14 27.7926 165.944 27.7926C165.493 27.7926 165.09 27.8885 164.736 28.0803C164.387 28.2678 164.11 28.5298 163.905 28.8665C163.701 29.1989 163.598 29.5781 163.598 30.0043V36H161.687ZM173.759 26.1818V27.7159H168.396V26.1818H173.759ZM169.834 23.8295H171.745V33.1172C171.745 33.4879 171.8 33.767 171.911 33.9545C172.022 34.1378 172.165 34.2635 172.339 34.3317C172.518 34.3956 172.712 34.4276 172.921 34.4276C173.075 34.4276 173.209 34.4169 173.324 34.3956C173.439 34.3743 173.528 34.3572 173.592 34.3445L173.938 35.9233C173.827 35.9659 173.669 36.0085 173.464 36.0511C173.26 36.098 173.004 36.1236 172.697 36.1278C172.195 36.1364 171.726 36.0469 171.291 35.8594C170.857 35.6719 170.505 35.3821 170.237 34.9901C169.968 34.598 169.834 34.1058 169.834 33.5135V23.8295ZM179.999 36.1982C179.031 36.1982 178.198 35.9915 177.499 35.5781C176.805 35.1605 176.268 34.5746 175.889 33.8203C175.514 33.0618 175.326 32.1733 175.326 31.1548C175.326 30.1491 175.514 29.2628 175.889 28.4957C176.268 27.7287 176.796 27.13 177.474 26.6996C178.156 26.2692 178.953 26.054 179.865 26.054C180.419 26.054 180.955 26.1456 181.475 26.3288C181.995 26.5121 182.462 26.7997 182.875 27.1918C183.289 27.5838 183.615 28.093 183.853 28.7195C184.092 29.3416 184.211 30.098 184.211 30.9886V31.6662H176.406V30.2344H182.338C182.338 29.7315 182.236 29.2862 182.031 28.8984C181.827 28.5064 181.539 28.1974 181.169 27.9716C180.802 27.7457 180.372 27.6328 179.877 27.6328C179.34 27.6328 178.872 27.7649 178.471 28.0291C178.075 28.2891 177.768 28.63 177.551 29.0518C177.338 29.4695 177.231 29.9233 177.231 30.4134V31.532C177.231 32.1882 177.346 32.7464 177.576 33.2067C177.811 33.6669 178.137 34.0185 178.554 34.2614C178.972 34.5 179.46 34.6193 180.018 34.6193C180.38 34.6193 180.71 34.5682 181.009 34.4659C181.307 34.3594 181.565 34.2017 181.782 33.9929C181.999 33.7841 182.166 33.5263 182.281 33.2195L184.09 33.5455C183.945 34.0781 183.685 34.5447 183.31 34.9453C182.939 35.3416 182.472 35.6506 181.91 35.8722C181.352 36.0895 180.715 36.1982 179.999 36.1982ZM193.689 28.5788L191.957 28.8857C191.884 28.6641 191.769 28.4531 191.612 28.2528C191.458 28.0526 191.249 27.8885 190.985 27.7607C190.721 27.6328 190.391 27.5689 189.994 27.5689C189.453 27.5689 189.001 27.6903 188.639 27.9332C188.277 28.1719 188.096 28.4808 188.096 28.8601C188.096 29.1882 188.217 29.4524 188.46 29.6527C188.703 29.853 189.095 30.017 189.636 30.1449L191.196 30.5028C192.099 30.7116 192.773 31.0334 193.216 31.468C193.659 31.9027 193.881 32.4673 193.881 33.1619C193.881 33.75 193.71 34.2741 193.369 34.7344C193.033 35.1903 192.562 35.5483 191.957 35.8082C191.356 36.0682 190.659 36.1982 189.866 36.1982C188.767 36.1982 187.87 35.9638 187.175 35.495C186.481 35.022 186.055 34.3509 185.897 33.4815L187.744 33.2003C187.859 33.6818 188.096 34.0462 188.454 34.2933C188.812 34.5362 189.278 34.6577 189.854 34.6577C190.48 34.6577 190.981 34.5277 191.356 34.2678C191.731 34.0036 191.918 33.6818 191.918 33.3026C191.918 32.9957 191.803 32.7379 191.573 32.5291C191.347 32.3203 191 32.1626 190.531 32.0561L188.869 31.6918C187.953 31.483 187.276 31.1506 186.837 30.6946C186.402 30.2386 186.185 29.6612 186.185 28.9624C186.185 28.3828 186.347 27.8757 186.67 27.4411C186.994 27.0064 187.442 26.6676 188.013 26.4247C188.584 26.1776 189.238 26.054 189.975 26.054C191.036 26.054 191.871 26.2841 192.481 26.7443C193.09 27.2003 193.493 27.8118 193.689 28.5788Z" fill="#FCF4F5"/>
<path d="M236.438 22.9091H238.835L243.003 33.0852H243.156L247.324 22.9091H249.721V36H247.842V26.527H247.72L243.859 35.9808H242.3L238.439 26.5206H238.317V36H236.438V22.9091ZM252.439 36V26.1818H254.35V36H252.439ZM253.404 24.6669C253.072 24.6669 252.786 24.5561 252.548 24.3345C252.313 24.1087 252.196 23.8402 252.196 23.5291C252.196 23.2138 252.313 22.9453 252.548 22.7237C252.786 22.4979 253.072 22.3849 253.404 22.3849C253.737 22.3849 254.02 22.4979 254.254 22.7237C254.493 22.9453 254.612 23.2138 254.612 23.5291C254.612 23.8402 254.493 24.1087 254.254 24.3345C254.02 24.5561 253.737 24.6669 253.404 24.6669ZM261.153 36.1982C260.186 36.1982 259.353 35.9915 258.654 35.5781C257.959 35.1605 257.422 34.5746 257.043 33.8203C256.668 33.0618 256.48 32.1733 256.48 31.1548C256.48 30.1491 256.668 29.2628 257.043 28.4957C257.422 27.7287 257.951 27.13 258.628 26.6996C259.31 26.2692 260.107 26.054 261.019 26.054C261.573 26.054 262.11 26.1456 262.63 26.3288C263.15 26.5121 263.616 26.7997 264.029 27.1918C264.443 27.5838 264.769 28.093 265.007 28.7195C265.246 29.3416 265.365 30.098 265.365 30.9886V31.6662H257.561V30.2344H263.493C263.493 29.7315 263.39 29.2862 263.186 28.8984C262.981 28.5064 262.694 28.1974 262.323 27.9716C261.956 27.7457 261.526 27.6328 261.032 27.6328C260.495 27.6328 260.026 27.7649 259.625 28.0291C259.229 28.2891 258.922 28.63 258.705 29.0518C258.492 29.4695 258.385 29.9233 258.385 30.4134V31.532C258.385 32.1882 258.5 32.7464 258.73 33.2067C258.965 33.6669 259.291 34.0185 259.708 34.2614C260.126 34.5 260.614 34.6193 261.172 34.6193C261.534 34.6193 261.865 34.5682 262.163 34.4659C262.461 34.3594 262.719 34.2017 262.936 33.9929C263.154 33.7841 263.32 33.5263 263.435 33.2195L265.244 33.5455C265.099 34.0781 264.839 34.5447 264.464 34.9453C264.093 35.3416 263.627 35.6506 263.064 35.8722C262.506 36.0895 261.869 36.1982 261.153 36.1982ZM260.156 24.8714L261.652 21.9247H263.665L261.684 24.8714H260.156ZM267.486 36V26.1818H269.333V27.7415H269.436C269.615 27.2131 269.93 26.7976 270.382 26.495C270.838 26.1882 271.353 26.0348 271.928 26.0348C272.048 26.0348 272.188 26.0391 272.35 26.0476C272.517 26.0561 272.646 26.0668 272.74 26.0795V27.9077C272.664 27.8864 272.527 27.8629 272.331 27.8374C272.135 27.8075 271.939 27.7926 271.743 27.7926C271.291 27.7926 270.889 27.8885 270.535 28.0803C270.186 28.2678 269.909 28.5298 269.704 28.8665C269.499 29.1989 269.397 29.5781 269.397 30.0043V36H267.486ZM278.178 36.1982C277.228 36.1982 276.41 35.983 275.724 35.5526C275.042 35.1179 274.518 34.5192 274.151 33.7564C273.785 32.9936 273.602 32.12 273.602 31.1357C273.602 30.1385 273.789 29.2585 274.164 28.4957C274.539 27.7287 275.067 27.13 275.749 26.6996C276.431 26.2692 277.234 26.054 278.159 26.054C278.905 26.054 279.57 26.1925 280.153 26.4695C280.737 26.7422 281.208 27.1257 281.566 27.62C281.928 28.1143 282.143 28.6918 282.212 29.3523H280.352C280.249 28.892 280.015 28.4957 279.648 28.1634C279.286 27.831 278.8 27.6648 278.191 27.6648C277.658 27.6648 277.192 27.8054 276.791 28.0866C276.395 28.3636 276.086 28.7599 275.864 29.2756C275.643 29.7869 275.532 30.392 275.532 31.0909C275.532 31.8068 275.641 32.4247 275.858 32.9446C276.075 33.4645 276.382 33.8672 276.778 34.1527C277.179 34.4382 277.65 34.581 278.191 34.581C278.553 34.581 278.881 34.5149 279.175 34.3828C279.474 34.2464 279.723 34.0526 279.923 33.8011C280.128 33.5497 280.271 33.2472 280.352 32.8935H282.212C282.143 33.5284 281.937 34.0952 281.592 34.5938C281.246 35.0923 280.784 35.4844 280.205 35.7699C279.629 36.0554 278.954 36.1982 278.178 36.1982ZM288.391 36.1982C287.471 36.1982 286.667 35.9872 285.981 35.5653C285.295 35.1435 284.763 34.5533 284.383 33.7947C284.004 33.0362 283.814 32.1499 283.814 31.1357C283.814 30.1172 284.004 29.2266 284.383 28.4638C284.763 27.701 285.295 27.1087 285.981 26.6868C286.667 26.2649 287.471 26.054 288.391 26.054C289.312 26.054 290.115 26.2649 290.801 26.6868C291.487 27.1087 292.02 27.701 292.399 28.4638C292.778 29.2266 292.968 30.1172 292.968 31.1357C292.968 32.1499 292.778 33.0362 292.399 33.7947C292.02 34.5533 291.487 35.1435 290.801 35.5653C290.115 35.9872 289.312 36.1982 288.391 36.1982ZM288.398 34.5938C288.994 34.5938 289.488 34.4361 289.881 34.1207C290.273 33.8054 290.562 33.3857 290.75 32.8615C290.942 32.3374 291.037 31.7599 291.037 31.1293C291.037 30.5028 290.942 29.9276 290.75 29.4034C290.562 28.875 290.273 28.451 289.881 28.1314C289.488 27.8118 288.994 27.652 288.398 27.652C287.797 27.652 287.298 27.8118 286.902 28.1314C286.51 28.451 286.218 28.875 286.026 29.4034C285.839 29.9276 285.745 30.5028 285.745 31.1293C285.745 31.7599 285.839 32.3374 286.026 32.8615C286.218 33.3857 286.51 33.8054 286.902 34.1207C287.298 34.4361 287.797 34.5938 288.398 34.5938ZM297.012 22.9091V36H295.101V22.9091H297.012ZM303.815 36.1982C302.848 36.1982 302.015 35.9915 301.316 35.5781C300.621 35.1605 300.084 34.5746 299.705 33.8203C299.33 33.0618 299.143 32.1733 299.143 31.1548C299.143 30.1491 299.33 29.2628 299.705 28.4957C300.084 27.7287 300.613 27.13 301.29 26.6996C301.972 26.2692 302.769 26.054 303.681 26.054C304.235 26.054 304.772 26.1456 305.292 26.3288C305.812 26.5121 306.278 26.7997 306.692 27.1918C307.105 27.5838 307.431 28.093 307.67 28.7195C307.908 29.3416 308.028 30.098 308.028 30.9886V31.6662H300.223V30.2344H306.155C306.155 29.7315 306.052 29.2862 305.848 28.8984C305.643 28.5064 305.356 28.1974 304.985 27.9716C304.618 27.7457 304.188 27.6328 303.694 27.6328C303.157 27.6328 302.688 27.7649 302.287 28.0291C301.891 28.2891 301.584 28.63 301.367 29.0518C301.154 29.4695 301.047 29.9233 301.047 30.4134V31.532C301.047 32.1882 301.162 32.7464 301.393 33.2067C301.627 33.6669 301.953 34.0185 302.371 34.2614C302.788 34.5 303.276 34.6193 303.834 34.6193C304.197 34.6193 304.527 34.5682 304.825 34.4659C305.123 34.3594 305.381 34.2017 305.599 33.9929C305.816 33.7841 305.982 33.5263 306.097 33.2195L307.906 33.5455C307.761 34.0781 307.501 34.5447 307.126 34.9453C306.756 35.3416 306.289 35.6506 305.726 35.8722C305.168 36.0895 304.531 36.1982 303.815 36.1982ZM317.505 28.5788L315.773 28.8857C315.701 28.6641 315.586 28.4531 315.428 28.2528C315.275 28.0526 315.066 27.8885 314.801 27.7607C314.537 27.6328 314.207 27.5689 313.811 27.5689C313.27 27.5689 312.818 27.6903 312.456 27.9332C312.093 28.1719 311.912 28.4808 311.912 28.8601C311.912 29.1882 312.034 29.4524 312.277 29.6527C312.52 29.853 312.912 30.017 313.453 30.1449L315.012 30.5028C315.916 30.7116 316.589 31.0334 317.032 31.468C317.475 31.9027 317.697 32.4673 317.697 33.1619C317.697 33.75 317.527 34.2741 317.186 34.7344C316.849 35.1903 316.378 35.5483 315.773 35.8082C315.172 36.0682 314.475 36.1982 313.683 36.1982C312.583 36.1982 311.686 35.9638 310.992 35.495C310.297 35.022 309.871 34.3509 309.713 33.4815L311.561 33.2003C311.676 33.6818 311.912 34.0462 312.27 34.2933C312.628 34.5362 313.095 34.6577 313.67 34.6577C314.297 34.6577 314.797 34.5277 315.172 34.2678C315.547 34.0036 315.735 33.6818 315.735 33.3026C315.735 32.9957 315.62 32.7379 315.39 32.5291C315.164 32.3203 314.816 32.1626 314.348 32.0561L312.686 31.6918C311.77 31.483 311.092 31.1506 310.653 30.6946C310.218 30.2386 310.001 29.6612 310.001 28.9624C310.001 28.3828 310.163 27.8757 310.487 27.4411C310.811 27.0064 311.258 26.6676 311.829 26.4247C312.4 26.1776 313.054 26.054 313.792 26.054C314.853 26.054 315.688 26.2841 316.297 26.7443C316.907 27.2003 317.309 27.8118 317.505 28.5788Z" fill="#FCF4F5"/>
<path d="M366.526 22.9091H368.495V32.1903C368.495 33.0298 368.329 33.7479 367.996 34.3445C367.668 34.9411 367.206 35.397 366.609 35.7124C366.013 36.0234 365.314 36.179 364.513 36.179C363.776 36.179 363.113 36.0447 362.525 35.7763C361.941 35.5078 361.479 35.1179 361.138 34.6065C360.801 34.0909 360.633 33.4645 360.633 32.7273H362.595C362.595 33.0895 362.678 33.4027 362.844 33.6669C363.015 33.9311 363.247 34.1378 363.541 34.2869C363.839 34.4318 364.18 34.5043 364.564 34.5043C364.982 34.5043 365.335 34.4169 365.625 34.2422C365.919 34.0632 366.143 33.8011 366.296 33.456C366.45 33.1108 366.526 32.6889 366.526 32.1903V22.9091ZM377.436 31.9283V26.1818H379.354V36H377.474V34.2997H377.372C377.146 34.8239 376.784 35.2607 376.285 35.6101C375.791 35.9553 375.175 36.1278 374.438 36.1278C373.807 36.1278 373.249 35.9893 372.763 35.7124C372.282 35.4311 371.903 35.0156 371.626 34.4659C371.353 33.9162 371.216 33.2365 371.216 32.4268V26.1818H373.128V32.1967C373.128 32.8658 373.313 33.3984 373.684 33.7947C374.055 34.1911 374.536 34.3892 375.128 34.3892C375.486 34.3892 375.842 34.2997 376.196 34.1207C376.554 33.9418 376.85 33.6712 377.084 33.3089C377.323 32.9467 377.44 32.4865 377.436 31.9283ZM386.153 36.1982C385.186 36.1982 384.353 35.9915 383.654 35.5781C382.959 35.1605 382.422 34.5746 382.043 33.8203C381.668 33.0618 381.48 32.1733 381.48 31.1548C381.48 30.1491 381.668 29.2628 382.043 28.4957C382.422 27.7287 382.951 27.13 383.628 26.6996C384.31 26.2692 385.107 26.054 386.019 26.054C386.573 26.054 387.11 26.1456 387.63 26.3288C388.15 26.5121 388.616 26.7997 389.029 27.1918C389.443 27.5838 389.769 28.093 390.007 28.7195C390.246 29.3416 390.365 30.098 390.365 30.9886V31.6662H382.561V30.2344H388.493C388.493 29.7315 388.39 29.2862 388.186 28.8984C387.981 28.5064 387.694 28.1974 387.323 27.9716C386.956 27.7457 386.526 27.6328 386.032 27.6328C385.495 27.6328 385.026 27.7649 384.625 28.0291C384.229 28.2891 383.922 28.63 383.705 29.0518C383.492 29.4695 383.385 29.9233 383.385 30.4134V31.532C383.385 32.1882 383.5 32.7464 383.73 33.2067C383.965 33.6669 384.291 34.0185 384.708 34.2614C385.126 34.5 385.614 34.6193 386.172 34.6193C386.534 34.6193 386.865 34.5682 387.163 34.4659C387.461 34.3594 387.719 34.2017 387.936 33.9929C388.154 33.7841 388.32 33.5263 388.435 33.2195L390.244 33.5455C390.099 34.0781 389.839 34.5447 389.464 34.9453C389.093 35.3416 388.627 35.6506 388.064 35.8722C387.506 36.0895 386.869 36.1982 386.153 36.1982ZM400.586 26.1818L397.026 36H394.98L391.414 26.1818H393.466L395.952 33.7372H396.054L398.534 26.1818H400.586ZM406.262 36.1982C405.295 36.1982 404.462 35.9915 403.763 35.5781C403.069 35.1605 402.532 34.5746 402.152 33.8203C401.777 33.0618 401.59 32.1733 401.59 31.1548C401.59 30.1491 401.777 29.2628 402.152 28.4957C402.532 27.7287 403.06 27.13 403.738 26.6996C404.419 26.2692 405.216 26.054 406.128 26.054C406.682 26.054 407.219 26.1456 407.739 26.3288C408.259 26.5121 408.725 26.7997 409.139 27.1918C409.552 27.5838 409.878 28.093 410.117 28.7195C410.355 29.3416 410.475 30.098 410.475 30.9886V31.6662H402.67V30.2344H408.602C408.602 29.7315 408.5 29.2862 408.295 28.8984C408.091 28.5064 407.803 28.1974 407.432 27.9716C407.066 27.7457 406.635 27.6328 406.141 27.6328C405.604 27.6328 405.135 27.7649 404.735 28.0291C404.338 28.2891 404.032 28.63 403.814 29.0518C403.601 29.4695 403.495 29.9233 403.495 30.4134V31.532C403.495 32.1882 403.61 32.7464 403.84 33.2067C404.074 33.6669 404.4 34.0185 404.818 34.2614C405.235 34.5 405.723 34.6193 406.282 34.6193C406.644 34.6193 406.974 34.5682 407.272 34.4659C407.571 34.3594 407.828 34.2017 408.046 33.9929C408.263 33.7841 408.429 33.5263 408.544 33.2195L410.353 33.5455C410.208 34.0781 409.949 34.5447 409.574 34.9453C409.203 35.3416 408.736 35.6506 408.174 35.8722C407.615 36.0895 406.978 36.1982 406.262 36.1982ZM419.953 28.5788L418.22 28.8857C418.148 28.6641 418.033 28.4531 417.875 28.2528C417.722 28.0526 417.513 27.8885 417.249 27.7607C416.985 27.6328 416.654 27.5689 416.258 27.5689C415.717 27.5689 415.265 27.6903 414.903 27.9332C414.541 28.1719 414.36 28.4808 414.36 28.8601C414.36 29.1882 414.481 29.4524 414.724 29.6527C414.967 29.853 415.359 30.017 415.9 30.1449L417.46 30.5028C418.363 30.7116 419.036 31.0334 419.48 31.468C419.923 31.9027 420.144 32.4673 420.144 33.1619C420.144 33.75 419.974 34.2741 419.633 34.7344C419.296 35.1903 418.825 35.5483 418.22 35.8082C417.619 36.0682 416.923 36.1982 416.13 36.1982C415.031 36.1982 414.134 35.9638 413.439 35.495C412.744 35.022 412.318 34.3509 412.161 33.4815L414.008 33.2003C414.123 33.6818 414.36 34.0462 414.718 34.2933C415.075 34.5362 415.542 34.6577 416.117 34.6577C416.744 34.6577 417.244 34.5277 417.619 34.2678C417.994 34.0036 418.182 33.6818 418.182 33.3026C418.182 32.9957 418.067 32.7379 417.837 32.5291C417.611 32.3203 417.264 32.1626 416.795 32.0561L415.133 31.6918C414.217 31.483 413.539 31.1506 413.1 30.6946C412.666 30.2386 412.448 29.6612 412.448 28.9624C412.448 28.3828 412.61 27.8757 412.934 27.4411C413.258 27.0064 413.705 26.6676 414.276 26.4247C414.847 26.1776 415.502 26.054 416.239 26.054C417.3 26.054 418.135 26.2841 418.744 26.7443C419.354 27.2003 419.757 27.8118 419.953 28.5788Z" fill="#FCF4F5"/>
<path d="M472.582 22.9091L476.226 33.571H476.373L480.016 22.9091H482.151L477.44 36H475.158L470.447 22.9091H472.582ZM483.888 36V26.1818H485.8V36H483.888ZM484.854 24.6669C484.521 24.6669 484.236 24.5561 483.997 24.3345C483.763 24.1087 483.645 23.8402 483.645 23.5291C483.645 23.2138 483.763 22.9453 483.997 22.7237C484.236 22.4979 484.521 22.3849 484.854 22.3849C485.186 22.3849 485.469 22.4979 485.704 22.7237C485.942 22.9453 486.062 23.2138 486.062 23.5291C486.062 23.8402 485.942 24.1087 485.704 24.3345C485.469 24.5561 485.186 24.6669 484.854 24.6669ZM492.602 36.1982C491.635 36.1982 490.802 35.9915 490.103 35.5781C489.408 35.1605 488.871 34.5746 488.492 33.8203C488.117 33.0618 487.93 32.1733 487.93 31.1548C487.93 30.1491 488.117 29.2628 488.492 28.4957C488.871 27.7287 489.4 27.13 490.077 26.6996C490.759 26.2692 491.556 26.054 492.468 26.054C493.022 26.054 493.559 26.1456 494.079 26.3288C494.599 26.5121 495.065 26.7997 495.479 27.1918C495.892 27.5838 496.218 28.093 496.457 28.7195C496.695 29.3416 496.815 30.098 496.815 30.9886V31.6662H489.01V30.2344H494.942C494.942 29.7315 494.839 29.2862 494.635 28.8984C494.43 28.5064 494.143 28.1974 493.772 27.9716C493.406 27.7457 492.975 27.6328 492.481 27.6328C491.944 27.6328 491.475 27.7649 491.075 28.0291C490.678 28.2891 490.371 28.63 490.154 29.0518C489.941 29.4695 489.835 29.9233 489.835 30.4134V31.532C489.835 32.1882 489.95 32.7464 490.18 33.2067C490.414 33.6669 490.74 34.0185 491.158 34.2614C491.575 34.5 492.063 34.6193 492.621 34.6193C492.984 34.6193 493.314 34.5682 493.612 34.4659C493.911 34.3594 494.168 34.2017 494.386 33.9929C494.603 33.7841 494.769 33.5263 494.884 33.2195L496.693 33.5455C496.548 34.0781 496.288 34.5447 495.913 34.9453C495.543 35.3416 495.076 35.6506 494.513 35.8722C493.955 36.0895 493.318 36.1982 492.602 36.1982ZM498.935 36V26.1818H500.782V27.7415H500.885C501.064 27.2131 501.379 26.7976 501.831 26.495C502.287 26.1882 502.802 26.0348 503.378 26.0348C503.497 26.0348 503.638 26.0391 503.8 26.0476C503.966 26.0561 504.096 26.0668 504.189 26.0795V27.9077C504.113 27.8864 503.976 27.8629 503.78 27.8374C503.584 27.8075 503.388 27.7926 503.192 27.7926C502.741 27.7926 502.338 27.8885 501.984 28.0803C501.635 28.2678 501.358 28.5298 501.153 28.8665C500.949 29.1989 500.846 29.5781 500.846 30.0043V36H498.935ZM507.755 30.1705V36H505.843V26.1818H507.678V27.7798H507.799C508.025 27.2599 508.379 26.8423 508.86 26.527C509.346 26.2116 509.958 26.054 510.695 26.054C511.364 26.054 511.95 26.1946 512.453 26.4759C512.956 26.7528 513.346 27.1662 513.623 27.7159C513.9 28.2656 514.038 28.9453 514.038 29.755V36H512.127V29.9851C512.127 29.2734 511.941 28.7173 511.571 28.3168C511.2 27.9119 510.691 27.7095 510.043 27.7095C509.6 27.7095 509.206 27.8054 508.86 27.9972C508.52 28.1889 508.249 28.4702 508.049 28.8409C507.853 29.2074 507.755 29.6506 507.755 30.1705ZM520.833 36.1982C519.865 36.1982 519.032 35.9915 518.333 35.5781C517.639 35.1605 517.102 34.5746 516.723 33.8203C516.348 33.0618 516.16 32.1733 516.16 31.1548C516.16 30.1491 516.348 29.2628 516.723 28.4957C517.102 27.7287 517.63 27.13 518.308 26.6996C518.99 26.2692 519.787 26.054 520.699 26.054C521.252 26.054 521.789 26.1456 522.309 26.3288C522.829 26.5121 523.296 26.7997 523.709 27.1918C524.123 27.5838 524.449 28.093 524.687 28.7195C524.926 29.3416 525.045 30.098 525.045 30.9886V31.6662H517.24V30.2344H523.172C523.172 29.7315 523.07 29.2862 522.865 28.8984C522.661 28.5064 522.373 28.1974 522.002 27.9716C521.636 27.7457 521.206 27.6328 520.711 27.6328C520.174 27.6328 519.706 27.7649 519.305 28.0291C518.909 28.2891 518.602 28.63 518.385 29.0518C518.172 29.4695 518.065 29.9233 518.065 30.4134V31.532C518.065 32.1882 518.18 32.7464 518.41 33.2067C518.645 33.6669 518.971 34.0185 519.388 34.2614C519.806 34.5 520.294 34.6193 520.852 34.6193C521.214 34.6193 521.544 34.5682 521.843 34.4659C522.141 34.3594 522.399 34.2017 522.616 33.9929C522.833 33.7841 523 33.5263 523.115 33.2195L524.924 33.5455C524.779 34.0781 524.519 34.5447 524.144 34.9453C523.773 35.3416 523.306 35.6506 522.744 35.8722C522.186 36.0895 521.549 36.1982 520.833 36.1982ZM534.523 28.5788L532.791 28.8857C532.718 28.6641 532.603 28.4531 532.445 28.2528C532.292 28.0526 532.083 27.8885 531.819 27.7607C531.555 27.6328 531.225 27.5689 530.828 27.5689C530.287 27.5689 529.835 27.6903 529.473 27.9332C529.111 28.1719 528.93 28.4808 528.93 28.8601C528.93 29.1882 529.051 29.4524 529.294 29.6527C529.537 29.853 529.929 30.017 530.47 30.1449L532.03 30.5028C532.933 30.7116 533.607 31.0334 534.05 31.468C534.493 31.9027 534.715 32.4673 534.715 33.1619C534.715 33.75 534.544 34.2741 534.203 34.7344C533.867 35.1903 533.396 35.5483 532.791 35.8082C532.19 36.0682 531.493 36.1982 530.7 36.1982C529.601 36.1982 528.704 35.9638 528.009 35.495C527.315 35.022 526.889 34.3509 526.731 33.4815L528.578 33.2003C528.693 33.6818 528.93 34.0462 529.288 34.2933C529.646 34.5362 530.112 34.6577 530.688 34.6577C531.314 34.6577 531.815 34.5277 532.19 34.2678C532.565 34.0036 532.752 33.6818 532.752 33.3026C532.752 32.9957 532.637 32.7379 532.407 32.5291C532.181 32.3203 531.834 32.1626 531.365 32.0561L529.703 31.6918C528.787 31.483 528.11 31.1506 527.671 30.6946C527.236 30.2386 527.019 29.6612 527.019 28.9624C527.019 28.3828 527.181 27.8757 527.504 27.4411C527.828 27.0064 528.276 26.6676 528.847 26.4247C529.418 26.1776 530.072 26.054 530.809 26.054C531.87 26.054 532.705 26.2841 533.315 26.7443C533.924 27.2003 534.327 27.8118 534.523 28.5788Z" fill="#FCF4F5"/>
<path d="M584.578 26.348C584.51 25.7429 584.229 25.2741 583.734 24.9418C583.24 24.6051 582.618 24.4368 581.868 24.4368C581.331 24.4368 580.866 24.522 580.474 24.6925C580.082 24.8587 579.778 25.0888 579.56 25.3828C579.347 25.6726 579.241 26.0028 579.241 26.3736C579.241 26.6847 579.313 26.9531 579.458 27.179C579.607 27.4048 579.801 27.5945 580.04 27.7479C580.283 27.897 580.543 28.0227 580.82 28.125C581.097 28.223 581.363 28.304 581.619 28.3679L582.897 28.7003C583.315 28.8026 583.743 28.9411 584.182 29.1158C584.621 29.2905 585.028 29.5206 585.403 29.8061C585.778 30.0916 586.08 30.4453 586.31 30.8672C586.545 31.2891 586.662 31.794 586.662 32.3821C586.662 33.1236 586.47 33.782 586.087 34.3572C585.707 34.9325 585.156 35.3864 584.431 35.7188C583.711 36.0511 582.839 36.2173 581.817 36.2173C580.837 36.2173 579.989 36.0618 579.273 35.7507C578.557 35.4396 577.996 34.9986 577.592 34.4276C577.187 33.8523 576.963 33.1705 576.92 32.3821H578.902C578.94 32.8551 579.094 33.2493 579.362 33.5646C579.635 33.8757 579.982 34.108 580.404 34.2614C580.83 34.4105 581.297 34.4851 581.804 34.4851C582.362 34.4851 582.859 34.3977 583.293 34.223C583.732 34.044 584.077 33.7969 584.329 33.4815C584.58 33.1619 584.706 32.7891 584.706 32.3629C584.706 31.9751 584.595 31.6577 584.374 31.4105C584.156 31.1634 583.86 30.9588 583.485 30.7969C583.114 30.6349 582.695 30.4922 582.226 30.3686L580.679 29.9467C579.631 29.6612 578.8 29.2415 578.186 28.6875C577.577 28.1335 577.272 27.4006 577.272 26.4886C577.272 25.7344 577.477 25.076 577.886 24.5135C578.295 23.951 578.849 23.5142 579.548 23.2031C580.246 22.8878 581.035 22.7301 581.913 22.7301C582.799 22.7301 583.581 22.8857 584.259 23.1967C584.94 23.5078 585.477 23.9361 585.869 24.4815C586.261 25.0227 586.466 25.6449 586.483 26.348H584.578ZM591.726 36.2173C591.104 36.2173 590.541 36.1023 590.039 35.8722C589.536 35.6378 589.137 35.299 588.843 34.8558C588.553 34.4126 588.409 33.8693 588.409 33.2259C588.409 32.6719 588.515 32.2159 588.728 31.858C588.941 31.5 589.229 31.2166 589.591 31.0078C589.953 30.799 590.358 30.6413 590.806 30.5348C591.253 30.4283 591.709 30.3473 592.173 30.2919C592.762 30.2237 593.239 30.1683 593.605 30.1257C593.972 30.0788 594.238 30.0043 594.404 29.902C594.57 29.7997 594.654 29.6335 594.654 29.4034V29.3587C594.654 28.8004 594.496 28.3679 594.181 28.0611C593.869 27.7543 593.405 27.6009 592.787 27.6009C592.144 27.6009 591.637 27.7436 591.266 28.0291C590.899 28.3104 590.646 28.6236 590.505 28.9688L588.709 28.5597C588.922 27.9631 589.233 27.4815 589.642 27.1151C590.056 26.7443 590.531 26.4759 591.068 26.3097C591.605 26.1392 592.169 26.054 592.762 26.054C593.154 26.054 593.569 26.1009 594.008 26.1946C594.451 26.2841 594.865 26.4503 595.248 26.6932C595.636 26.9361 595.953 27.2834 596.2 27.7351C596.448 28.1825 596.571 28.7642 596.571 29.4801V36H594.705V34.6577H594.628C594.504 34.9048 594.319 35.1477 594.072 35.3864C593.825 35.625 593.507 35.8232 593.119 35.9808C592.732 36.1385 592.267 36.2173 591.726 36.2173ZM592.142 34.6832C592.67 34.6832 593.122 34.5788 593.497 34.37C593.876 34.1612 594.164 33.8885 594.36 33.5518C594.56 33.2109 594.66 32.8466 594.66 32.4588V31.1932C594.592 31.2614 594.46 31.3253 594.264 31.3849C594.072 31.4403 593.852 31.4893 593.605 31.532C593.358 31.5703 593.117 31.6065 592.883 31.6406C592.649 31.6705 592.453 31.696 592.295 31.7173C591.924 31.7642 591.585 31.843 591.279 31.9538C590.976 32.0646 590.733 32.2244 590.55 32.4332C590.371 32.6378 590.281 32.9105 590.281 33.2514C590.281 33.7244 590.456 34.0824 590.806 34.3253C591.155 34.5639 591.6 34.6832 592.142 34.6832ZM592.071 24.8714L593.567 21.9247H595.58L593.599 24.8714H592.071ZM599.27 36V22.9091H601.181V27.7734H601.297C601.407 27.5689 601.567 27.3324 601.776 27.0639C601.985 26.7955 602.275 26.5611 602.645 26.3608C603.016 26.1562 603.506 26.054 604.115 26.054C604.908 26.054 605.615 26.2543 606.238 26.6548C606.86 27.0554 607.348 27.6328 607.701 28.3871C608.059 29.1413 608.238 30.049 608.238 31.1101C608.238 32.1712 608.061 33.081 607.708 33.8395C607.354 34.5937 606.868 35.1754 606.25 35.5845C605.632 35.9893 604.927 36.1918 604.135 36.1918C603.538 36.1918 603.05 36.0916 602.671 35.8913C602.296 35.6911 602.002 35.4567 601.789 35.1882C601.576 34.9197 601.412 34.6811 601.297 34.4723H601.137V36H599.27ZM601.143 31.0909C601.143 31.7812 601.243 32.3864 601.444 32.9062C601.644 33.4261 601.934 33.8331 602.313 34.1271C602.692 34.4169 603.157 34.5618 603.706 34.5618C604.277 34.5618 604.755 34.4105 605.138 34.108C605.522 33.8011 605.811 33.3857 606.007 32.8615C606.208 32.3374 606.308 31.7472 606.308 31.0909C606.308 30.4432 606.21 29.8615 606.014 29.3459C605.822 28.8303 605.532 28.4233 605.145 28.125C604.761 27.8267 604.282 27.6776 603.706 27.6776C603.152 27.6776 602.684 27.8203 602.3 28.1058C601.921 28.3913 601.633 28.7898 601.437 29.3011C601.241 29.8125 601.143 30.4091 601.143 31.0909ZM613.242 36.2173C612.619 36.2173 612.057 36.1023 611.554 35.8722C611.051 35.6378 610.653 35.299 610.359 34.8558C610.069 34.4126 609.924 33.8693 609.924 33.2259C609.924 32.6719 610.031 32.2159 610.244 31.858C610.457 31.5 610.744 31.2166 611.107 31.0078C611.469 30.799 611.874 30.6413 612.321 30.5348C612.769 30.4283 613.225 30.3473 613.689 30.2919C614.277 30.2237 614.754 30.1683 615.121 30.1257C615.487 30.0788 615.754 30.0043 615.92 29.902C616.086 29.7997 616.169 29.6335 616.169 29.4034V29.3587C616.169 28.8004 616.012 28.3679 615.696 28.0611C615.385 27.7543 614.921 27.6009 614.303 27.6009C613.659 27.6009 613.152 27.7436 612.781 28.0291C612.415 28.3104 612.161 28.6236 612.021 28.9688L610.225 28.5597C610.438 27.9631 610.749 27.4815 611.158 27.1151C611.571 26.7443 612.046 26.4759 612.583 26.3097C613.12 26.1392 613.685 26.054 614.277 26.054C614.669 26.054 615.085 26.1009 615.524 26.1946C615.967 26.2841 616.38 26.4503 616.764 26.6932C617.151 26.9361 617.469 27.2834 617.716 27.7351C617.963 28.1825 618.087 28.7642 618.087 29.4801V36H616.22V34.6577H616.144C616.02 34.9048 615.835 35.1477 615.588 35.3864C615.34 35.625 615.023 35.8232 614.635 35.9808C614.247 36.1385 613.783 36.2173 613.242 36.2173ZM613.657 34.6832C614.186 34.6832 614.637 34.5788 615.012 34.37C615.392 34.1612 615.679 33.8885 615.875 33.5518C616.075 33.2109 616.176 32.8466 616.176 32.4588V31.1932C616.107 31.2614 615.975 31.3253 615.779 31.3849C615.588 31.4403 615.368 31.4893 615.121 31.532C614.874 31.5703 614.633 31.6065 614.399 31.6406C614.164 31.6705 613.968 31.696 613.811 31.7173C613.44 31.7642 613.101 31.843 612.794 31.9538C612.492 32.0646 612.249 32.2244 612.066 32.4332C611.887 32.6378 611.797 32.9105 611.797 33.2514C611.797 33.7244 611.972 34.0824 612.321 34.3253C612.671 34.5639 613.116 34.6832 613.657 34.6832ZM624.308 36.1918C623.515 36.1918 622.808 35.9893 622.186 35.5845C621.568 35.1754 621.082 34.5937 620.728 33.8395C620.379 33.081 620.204 32.1712 620.204 31.1101C620.204 30.049 620.381 29.1413 620.735 28.3871C621.093 27.6328 621.583 27.0554 622.205 26.6548C622.827 26.2543 623.532 26.054 624.321 26.054C624.93 26.054 625.42 26.1562 625.791 26.3608C626.166 26.5611 626.456 26.7955 626.66 27.0639C626.869 27.3324 627.031 27.5689 627.146 27.7734H627.261V22.9091H629.172V36H627.306V34.4723H627.146C627.031 34.6811 626.865 34.9197 626.647 35.1882C626.434 35.4567 626.14 35.6911 625.765 35.8913C625.39 36.0916 624.904 36.1918 624.308 36.1918ZM624.73 34.5618C625.279 34.5618 625.744 34.4169 626.123 34.1271C626.507 33.8331 626.797 33.4261 626.993 32.9062C627.193 32.3864 627.293 31.7812 627.293 31.0909C627.293 30.4091 627.195 29.8125 626.999 29.3011C626.803 28.7898 626.515 28.3913 626.136 28.1058C625.757 27.8203 625.288 27.6776 624.73 27.6776C624.154 27.6776 623.675 27.8267 623.292 28.125C622.908 28.4233 622.618 28.8303 622.422 29.3459C622.23 29.8615 622.135 30.4432 622.135 31.0909C622.135 31.7472 622.233 32.3374 622.429 32.8615C622.625 33.3857 622.914 33.8011 623.298 34.108C623.686 34.4105 624.163 34.5618 624.73 34.5618ZM636.036 36.1982C635.115 36.1982 634.312 35.9872 633.626 35.5653C632.94 35.1435 632.407 34.5533 632.028 33.7947C631.649 33.0362 631.459 32.1499 631.459 31.1357C631.459 30.1172 631.649 29.2266 632.028 28.4638C632.407 27.701 632.94 27.1087 633.626 26.6868C634.312 26.2649 635.115 26.054 636.036 26.054C636.956 26.054 637.759 26.2649 638.445 26.6868C639.132 27.1087 639.664 27.701 640.044 28.4638C640.423 29.2266 640.612 30.1172 640.612 31.1357C640.612 32.1499 640.423 33.0362 640.044 33.7947C639.664 34.5533 639.132 35.1435 638.445 35.5653C637.759 35.9872 636.956 36.1982 636.036 36.1982ZM636.042 34.5938C636.639 34.5938 637.133 34.4361 637.525 34.1207C637.917 33.8054 638.207 33.3857 638.394 32.8615C638.586 32.3374 638.682 31.7599 638.682 31.1293C638.682 30.5028 638.586 29.9276 638.394 29.4034C638.207 28.875 637.917 28.451 637.525 28.1314C637.133 27.8118 636.639 27.652 636.042 27.652C635.441 27.652 634.943 27.8118 634.546 28.1314C634.154 28.451 633.862 28.875 633.671 29.4034C633.483 29.9276 633.389 30.5028 633.389 31.1293C633.389 31.7599 633.483 32.3374 633.671 32.8615C633.862 33.3857 634.154 33.8054 634.546 34.1207C634.943 34.4361 635.441 34.5938 636.042 34.5938Z" fill="#FCF4F5"/>
<path d="M694.676 36H690.438V22.9091H694.81C696.093 22.9091 697.195 23.1712 698.115 23.6953C699.036 24.2152 699.741 24.9631 700.231 25.9389C700.725 26.9105 700.972 28.076 700.972 29.4354C700.972 30.799 700.723 31.9709 700.224 32.951C699.73 33.9311 699.014 34.6854 698.077 35.2138C697.139 35.7379 696.006 36 694.676 36ZM692.413 34.2741H694.567C695.565 34.2741 696.393 34.0866 697.054 33.7116C697.714 33.3324 698.209 32.7848 698.537 32.0689C698.865 31.3487 699.029 30.4709 699.029 29.4354C699.029 28.4084 698.865 27.5369 698.537 26.821C698.213 26.1051 697.729 25.5618 697.086 25.1911C696.442 24.8203 695.643 24.6349 694.689 24.6349H692.413V34.2741ZM707.411 36.1982C706.49 36.1982 705.687 35.9872 705.001 35.5653C704.315 35.1435 703.782 34.5533 703.403 33.7947C703.024 33.0362 702.834 32.1499 702.834 31.1357C702.834 30.1172 703.024 29.2266 703.403 28.4638C703.782 27.701 704.315 27.1087 705.001 26.6868C705.687 26.2649 706.49 26.054 707.411 26.054C708.331 26.054 709.134 26.2649 709.82 26.6868C710.507 27.1087 711.039 27.701 711.419 28.4638C711.798 29.2266 711.987 30.1172 711.987 31.1357C711.987 32.1499 711.798 33.0362 711.419 33.7947C711.039 34.5533 710.507 35.1435 709.82 35.5653C709.134 35.9872 708.331 36.1982 707.411 36.1982ZM707.417 34.5938C708.014 34.5938 708.508 34.4361 708.9 34.1207C709.292 33.8054 709.582 33.3857 709.769 32.8615C709.961 32.3374 710.057 31.7599 710.057 31.1293C710.057 30.5028 709.961 29.9276 709.769 29.4034C709.582 28.875 709.292 28.451 708.9 28.1314C708.508 27.8118 708.014 27.652 707.417 27.652C706.816 27.652 706.318 27.8118 705.921 28.1314C705.529 28.451 705.237 28.875 705.046 29.4034C704.858 29.9276 704.764 30.5028 704.764 31.1293C704.764 31.7599 704.858 32.3374 705.046 32.8615C705.237 33.3857 705.529 33.8054 705.921 34.1207C706.318 34.4361 706.816 34.5938 707.417 34.5938ZM714.121 36V26.1818H715.955V27.7798H716.077C716.281 27.2386 716.616 26.8168 717.08 26.5142C717.545 26.2074 718.101 26.054 718.749 26.054C719.405 26.054 719.955 26.2074 720.398 26.5142C720.845 26.821 721.175 27.2429 721.388 27.7798H721.491C721.725 27.2557 722.098 26.8381 722.609 26.527C723.121 26.2116 723.73 26.054 724.438 26.054C725.328 26.054 726.055 26.3331 726.617 26.8913C727.184 27.4496 727.467 28.2912 727.467 29.4162V36H725.556V29.5952C725.556 28.9304 725.375 28.4489 725.013 28.1506C724.651 27.8523 724.218 27.7031 723.715 27.7031C723.093 27.7031 722.609 27.8949 722.264 28.2784C721.919 28.6577 721.746 29.1456 721.746 29.7422V36H719.842V29.4737C719.842 28.9411 719.675 28.5128 719.343 28.1889C719.011 27.8651 718.578 27.7031 718.045 27.7031C717.683 27.7031 717.349 27.799 717.042 27.9908C716.739 28.1783 716.494 28.4403 716.307 28.777C716.124 29.1136 716.032 29.5036 716.032 29.9467V36H714.121ZM730.029 36V26.1818H731.94V36H730.029ZM730.994 24.6669C730.662 24.6669 730.376 24.5561 730.138 24.3345C729.903 24.1087 729.786 23.8402 729.786 23.5291C729.786 23.2138 729.903 22.9453 730.138 22.7237C730.376 22.4979 730.662 22.3849 730.994 22.3849C731.327 22.3849 731.61 22.4979 731.844 22.7237C732.083 22.9453 732.202 23.2138 732.202 23.5291C732.202 23.8402 732.083 24.1087 731.844 24.3345C731.61 24.5561 731.327 24.6669 730.994 24.6669ZM736.423 30.1705V36H734.511V26.1818H736.346V27.7798H736.467C736.693 27.2599 737.047 26.8423 737.528 26.527C738.014 26.2116 738.626 26.054 739.363 26.054C740.032 26.054 740.618 26.1946 741.121 26.4759C741.624 26.7528 742.013 27.1662 742.29 27.7159C742.567 28.2656 742.706 28.9453 742.706 29.755V36H740.795V29.9851C740.795 29.2734 740.609 28.7173 740.239 28.3168C739.868 27.9119 739.359 27.7095 738.711 27.7095C738.268 27.7095 737.874 27.8054 737.528 27.9972C737.188 28.1889 736.917 28.4702 736.717 28.8409C736.521 29.2074 736.423 29.6506 736.423 30.1705ZM749.386 39.8672C748.606 39.8672 747.935 39.7649 747.372 39.5604C746.814 39.3558 746.358 39.0852 746.004 38.7486C745.651 38.4162 745.386 38.054 745.212 37.6619L746.854 36.9844C746.969 37.1634 747.123 37.3572 747.315 37.5661C747.511 37.7749 747.775 37.9538 748.107 38.103C748.444 38.2521 748.876 38.3267 749.405 38.3267C750.129 38.3267 750.728 38.152 751.201 37.8026C751.674 37.4531 751.911 36.8991 751.911 36.1406V34.2102H751.789C751.674 34.419 751.508 34.6513 751.29 34.907C751.077 35.1626 750.783 35.3842 750.408 35.5717C750.033 35.7592 749.545 35.853 748.945 35.853C748.169 35.853 747.47 35.6719 746.848 35.3097C746.23 34.9432 745.74 34.4041 745.378 33.6925C745.02 32.9766 744.841 32.0966 744.841 31.0526C744.841 30.0085 745.018 29.1136 745.371 28.3679C745.729 27.6222 746.219 27.0511 746.842 26.6548C747.464 26.2543 748.169 26.054 748.957 26.054C749.567 26.054 750.059 26.1562 750.434 26.3608C750.809 26.5611 751.101 26.7955 751.31 27.0639C751.523 27.3324 751.687 27.5689 751.802 27.7734H751.942V26.1818H753.815V36.2173C753.815 37.0526 753.619 37.7386 753.227 38.2756C752.835 38.8168 752.305 39.2173 751.636 39.4773C750.971 39.7372 750.221 39.8672 749.386 39.8672ZM749.366 34.2678C749.916 34.2678 750.381 34.1399 750.76 33.8842C751.143 33.6243 751.433 33.2536 751.629 32.772C751.83 32.2862 751.93 31.7045 751.93 31.027C751.93 30.3665 751.832 29.7848 751.636 29.282C751.44 28.7791 751.152 28.3871 750.773 28.1058C750.393 27.8203 749.925 27.6776 749.366 27.6776C748.791 27.6776 748.312 27.8267 747.928 28.125C747.545 28.419 747.255 28.8196 747.059 29.3267C746.867 29.8338 746.771 30.4006 746.771 31.027C746.771 31.6705 746.869 32.2351 747.065 32.7209C747.261 33.2067 747.551 33.5859 747.935 33.8587C748.322 34.1314 748.8 34.2678 749.366 34.2678ZM760.514 36.1982C759.594 36.1982 758.79 35.9872 758.104 35.5653C757.418 35.1435 756.886 34.5533 756.506 33.7947C756.127 33.0362 755.938 32.1499 755.938 31.1357C755.938 30.1172 756.127 29.2266 756.506 28.4638C756.886 27.701 757.418 27.1087 758.104 26.6868C758.79 26.2649 759.594 26.054 760.514 26.054C761.435 26.054 762.238 26.2649 762.924 26.6868C763.61 27.1087 764.143 27.701 764.522 28.4638C764.901 29.2266 765.091 30.1172 765.091 31.1357C765.091 32.1499 764.901 33.0362 764.522 33.7947C764.143 34.5533 763.61 35.1435 762.924 35.5653C762.238 35.9872 761.435 36.1982 760.514 36.1982ZM760.521 34.5938C761.117 34.5938 761.612 34.4361 762.004 34.1207C762.396 33.8054 762.685 33.3857 762.873 32.8615C763.065 32.3374 763.161 31.7599 763.161 31.1293C763.161 30.5028 763.065 29.9276 762.873 29.4034C762.685 28.875 762.396 28.451 762.004 28.1314C761.612 27.8118 761.117 27.652 760.521 27.652C759.92 27.652 759.421 27.8118 759.025 28.1314C758.633 28.451 758.341 28.875 758.149 29.4034C757.962 29.9276 757.868 30.5028 757.868 31.1293C757.868 31.7599 757.962 32.3374 758.149 32.8615C758.341 33.3857 758.633 33.8054 759.025 34.1207C759.421 34.4361 759.92 34.5938 760.521 34.5938Z" fill="#FCF4F5"/>
<path d="M13.8168 113.179C12.9389 113.179 12.1548 113.028 11.4645 112.725C10.7784 112.423 10.2351 112.003 9.83452 111.466C9.43821 110.925 9.22514 110.298 9.19531 109.587H11.2024C11.228 109.974 11.358 110.311 11.5923 110.597C11.831 110.878 12.142 111.095 12.5256 111.249C12.9091 111.402 13.3352 111.479 13.804 111.479C14.3196 111.479 14.7756 111.389 15.1719 111.21C15.5724 111.031 15.8857 110.782 16.1115 110.462C16.3374 110.138 16.4503 109.766 16.4503 109.344C16.4503 108.905 16.3374 108.519 16.1115 108.187C15.8899 107.85 15.5639 107.586 15.1335 107.394C14.7074 107.202 14.1918 107.107 13.5866 107.107H12.4808V105.496H13.5866C14.0724 105.496 14.4986 105.408 14.8651 105.234C15.2358 105.059 15.5256 104.816 15.7344 104.505C15.9432 104.19 16.0476 103.821 16.0476 103.399C16.0476 102.994 15.956 102.643 15.7727 102.344C15.5938 102.042 15.3381 101.805 15.0057 101.635C14.6776 101.464 14.2898 101.379 13.8423 101.379C13.4162 101.379 13.0178 101.458 12.647 101.616C12.2805 101.769 11.9822 101.991 11.7521 102.281C11.522 102.566 11.3984 102.909 11.3814 103.31H9.47017C9.49148 102.602 9.70028 101.98 10.0966 101.443C10.4972 100.906 11.0256 100.487 11.6818 100.184C12.3381 99.8814 13.0668 99.7301 13.8679 99.7301C14.7074 99.7301 15.4318 99.8942 16.0412 100.222C16.6548 100.546 17.1278 100.979 17.4602 101.52C17.7969 102.061 17.9631 102.653 17.9588 103.297C17.9631 104.03 17.7585 104.652 17.3452 105.163C16.9361 105.675 16.3906 106.018 15.7088 106.192V106.295C16.5781 106.427 17.2514 106.772 17.7287 107.33C18.2102 107.888 18.4489 108.581 18.4446 109.408C18.4489 110.128 18.2486 110.773 17.8438 111.344C17.4432 111.915 16.8956 112.365 16.201 112.693C15.5064 113.017 14.7116 113.179 13.8168 113.179ZM25.8274 99.9091V113H23.8459V101.891H23.7692L20.6371 103.936V102.044L23.9034 99.9091H25.8274Z" fill="black"/>
<path d="M10.7003 230L16.4148 218.699V218.603H9.8054V216.909H18.4602V218.661L12.7649 230H10.7003Z" fill="black"/>
<path d="M14.2259 328.909V342H12.2443V330.891H12.1676L9.03551 332.936V331.044L12.3018 328.909H14.2259ZM17.4922 339.443V337.845L23.1491 328.909H24.4084V331.261H23.6094L19.5632 337.666V337.768H27.3168V339.443H17.4922ZM23.6989 342V338.957L23.7116 338.229V328.909H25.5845V342H23.6989Z" fill="black"/>
<path d="M9.25923 457V455.568L13.6889 450.979C14.1619 450.48 14.5518 450.043 14.8587 449.668C15.1697 449.289 15.402 448.929 15.5554 448.588C15.7088 448.247 15.7855 447.885 15.7855 447.501C15.7855 447.067 15.6832 446.692 15.4787 446.376C15.2741 446.057 14.995 445.812 14.6413 445.641C14.2876 445.467 13.8892 445.379 13.446 445.379C12.9773 445.379 12.5682 445.475 12.2188 445.667C11.8693 445.859 11.6009 446.129 11.4134 446.479C11.2259 446.828 11.1321 447.237 11.1321 447.706H9.24645C9.24645 446.909 9.42969 446.212 9.79616 445.616C10.1626 445.019 10.6655 444.557 11.3047 444.229C11.9439 443.896 12.6705 443.73 13.4844 443.73C14.3068 443.73 15.0313 443.894 15.6577 444.222C16.2884 444.546 16.7805 444.989 17.1342 445.552C17.4879 446.11 17.6648 446.741 17.6648 447.444C17.6648 447.93 17.5732 448.405 17.3899 448.869C17.2109 449.334 16.8977 449.852 16.4503 450.423C16.0028 450.989 15.3807 451.678 14.5838 452.487L11.9822 455.21V455.306H17.8757V457H9.25923ZM25.2649 443.909V457H23.2834V445.891H23.2067L20.0746 447.936V446.044L23.3409 443.909H25.2649Z" fill="black"/>
<path d="M9.25923 566V564.568L13.6889 559.979C14.1619 559.48 14.5518 559.043 14.8587 558.668C15.1697 558.289 15.402 557.929 15.5554 557.588C15.7088 557.247 15.7855 556.885 15.7855 556.501C15.7855 556.067 15.6832 555.692 15.4787 555.376C15.2741 555.057 14.995 554.812 14.6413 554.641C14.2876 554.467 13.8892 554.379 13.446 554.379C12.9773 554.379 12.5682 554.475 12.2188 554.667C11.8693 554.859 11.6009 555.129 11.4134 555.479C11.2259 555.828 11.1321 556.237 11.1321 556.706H9.24645C9.24645 555.909 9.42969 555.212 9.79616 554.616C10.1626 554.019 10.6655 553.557 11.3047 553.229C11.9439 552.896 12.6705 552.73 13.4844 552.73C14.3068 552.73 15.0313 552.894 15.6577 553.222C16.2884 553.546 16.7805 553.989 17.1342 554.552C17.4879 555.11 17.6648 555.741 17.6648 556.444C17.6648 556.93 17.5732 557.405 17.3899 557.869C17.2109 558.334 16.8977 558.852 16.4503 559.423C16.0028 559.989 15.3807 560.678 14.5838 561.487L11.9822 564.21V564.306H17.8757V566H9.25923ZM24.7216 566.179C23.8054 566.179 22.9957 566.021 22.2926 565.706C21.5938 565.391 21.0462 564.956 20.6499 564.402C20.2536 563.848 20.0575 563.217 20.0618 562.51C20.0575 561.956 20.1705 561.447 20.4006 560.982C20.6349 560.513 20.9524 560.124 21.353 559.812C21.7536 559.497 22.201 559.297 22.6953 559.212V559.135C22.0433 558.977 21.5213 558.628 21.1293 558.087C20.7372 557.545 20.5433 556.923 20.5476 556.22C20.5433 555.551 20.7202 554.955 21.0781 554.43C21.4403 553.902 21.9368 553.487 22.5675 553.184C23.1982 552.881 23.9162 552.73 24.7216 552.73C25.5185 552.73 26.2301 552.884 26.8565 553.19C27.4872 553.493 27.9837 553.908 28.3459 554.437C28.7081 554.961 28.8913 555.555 28.8956 556.22C28.8913 556.923 28.6911 557.545 28.2947 558.087C27.8984 558.628 27.3828 558.977 26.7479 559.135V559.212C27.2379 559.297 27.679 559.497 28.071 559.812C28.4673 560.124 28.7827 560.513 29.017 560.982C29.2557 561.447 29.3771 561.956 29.3814 562.51C29.3771 563.217 29.1768 563.848 28.7805 564.402C28.3842 564.956 27.8345 565.391 27.1314 565.706C26.4325 566.021 25.6293 566.179 24.7216 566.179ZM24.7216 564.562C25.2628 564.562 25.7315 564.472 26.1278 564.293C26.5241 564.11 26.831 563.857 27.0483 563.533C27.2656 563.205 27.3764 562.821 27.3807 562.382C27.3764 561.926 27.2571 561.523 27.0227 561.174C26.7926 560.825 26.4794 560.55 26.0831 560.349C25.6868 560.149 25.233 560.049 24.7216 560.049C24.206 560.049 23.7479 560.149 23.3473 560.349C22.9467 560.55 22.6314 560.825 22.4013 561.174C22.1712 561.523 22.0582 561.926 22.0625 562.382C22.0582 562.821 22.1626 563.205 22.3757 563.533C22.593 563.857 22.902 564.11 23.3026 564.293C23.7031 564.472 24.1761 564.562 24.7216 564.562ZM24.7216 558.47C25.1563 558.47 25.5419 558.383 25.8786 558.208C26.2152 558.033 26.4794 557.79 26.6712 557.479C26.8672 557.168 26.9673 556.804 26.9716 556.386C26.9673 555.977 26.8693 555.619 26.6776 555.312C26.4901 555.006 26.228 554.769 25.8913 554.603C25.5547 554.433 25.1648 554.347 24.7216 554.347C24.2699 554.347 23.8736 554.433 23.5327 554.603C23.196 554.769 22.9339 555.006 22.7464 555.312C22.5589 555.619 22.4673 555.977 22.4716 556.386C22.4673 556.804 22.5611 557.168 22.7528 557.479C22.9446 557.79 23.2088 558.033 23.5455 558.208C23.8864 558.383 24.2784 558.47 24.7216 558.47Z" fill="black"/>
<path d="M129.226 99.9091V113H127.244V101.891H127.168L124.036 103.936V102.044L127.302 99.9091H129.226Z" fill="black"/>
<path d="M128.683 230.179C127.766 230.179 126.957 230.021 126.254 229.706C125.555 229.391 125.007 228.956 124.611 228.402C124.214 227.848 124.018 227.217 124.023 226.51C124.018 225.956 124.131 225.447 124.362 224.982C124.596 224.513 124.913 224.124 125.314 223.812C125.714 223.497 126.162 223.297 126.656 223.212V223.135C126.004 222.977 125.482 222.628 125.09 222.087C124.698 221.545 124.504 220.923 124.509 220.22C124.504 219.551 124.681 218.955 125.039 218.43C125.401 217.902 125.898 217.487 126.528 217.184C127.159 216.881 127.877 216.73 128.683 216.73C129.479 216.73 130.191 216.884 130.817 217.19C131.448 217.493 131.945 217.908 132.307 218.437C132.669 218.961 132.852 219.555 132.857 220.22C132.852 220.923 132.652 221.545 132.256 222.087C131.859 222.628 131.344 222.977 130.709 223.135V223.212C131.199 223.297 131.64 223.497 132.032 223.812C132.428 224.124 132.744 224.513 132.978 224.982C133.217 225.447 133.338 225.956 133.342 226.51C133.338 227.217 133.138 227.848 132.741 228.402C132.345 228.956 131.795 229.391 131.092 229.706C130.393 230.021 129.59 230.179 128.683 230.179ZM128.683 228.562C129.224 228.562 129.692 228.472 130.089 228.293C130.485 228.11 130.792 227.857 131.009 227.533C131.227 227.205 131.337 226.821 131.342 226.382C131.337 225.926 131.218 225.523 130.984 225.174C130.754 224.825 130.44 224.55 130.044 224.349C129.648 224.149 129.194 224.049 128.683 224.049C128.167 224.049 127.709 224.149 127.308 224.349C126.908 224.55 126.592 224.825 126.362 225.174C126.132 225.523 126.019 225.926 126.023 226.382C126.019 226.821 126.124 227.205 126.337 227.533C126.554 227.857 126.863 228.11 127.263 228.293C127.664 228.472 128.137 228.562 128.683 228.562ZM128.683 222.47C129.117 222.47 129.503 222.383 129.839 222.208C130.176 222.033 130.44 221.79 130.632 221.479C130.828 221.168 130.928 220.804 130.933 220.386C130.928 219.977 130.83 219.619 130.638 219.312C130.451 219.006 130.189 218.769 129.852 218.603C129.516 218.433 129.126 218.347 128.683 218.347C128.231 218.347 127.835 218.433 127.494 218.603C127.157 218.769 126.895 219.006 126.707 219.312C126.52 219.619 126.428 219.977 126.433 220.386C126.428 220.804 126.522 221.168 126.714 221.479C126.906 221.79 127.17 222.033 127.506 222.208C127.847 222.383 128.239 222.47 128.683 222.47Z" fill="black"/>
<path d="M128.226 328.909V342H126.244V330.891H126.168L123.036 332.936V331.044L126.302 328.909H128.226ZM136.088 342.179C135.287 342.179 134.567 342.026 133.928 341.719C133.293 341.408 132.786 340.982 132.406 340.44C132.027 339.899 131.825 339.281 131.799 338.587H133.717C133.763 339.149 134.013 339.612 134.464 339.974C134.916 340.336 135.457 340.517 136.088 340.517C136.591 340.517 137.036 340.402 137.424 340.172C137.816 339.938 138.123 339.616 138.344 339.207C138.57 338.798 138.683 338.331 138.683 337.807C138.683 337.274 138.568 336.799 138.338 336.381C138.108 335.964 137.79 335.636 137.386 335.397C136.985 335.158 136.525 335.037 136.005 335.033C135.609 335.033 135.21 335.101 134.81 335.237C134.409 335.374 134.085 335.553 133.838 335.774L132.029 335.506L132.764 328.909H139.962V330.603H134.407L133.991 334.266H134.068C134.324 334.018 134.663 333.812 135.085 333.646C135.511 333.479 135.967 333.396 136.452 333.396C137.249 333.396 137.959 333.586 138.581 333.965C139.207 334.344 139.7 334.862 140.058 335.518C140.42 336.17 140.599 336.92 140.594 337.768C140.599 338.616 140.407 339.373 140.019 340.038C139.636 340.702 139.103 341.227 138.421 341.61C137.744 341.989 136.966 342.179 136.088 342.179Z" fill="black"/>
<path d="M123.259 457V455.568L127.689 450.979C128.162 450.48 128.552 450.043 128.859 449.668C129.17 449.289 129.402 448.929 129.555 448.588C129.709 448.247 129.786 447.885 129.786 447.501C129.786 447.067 129.683 446.692 129.479 446.376C129.274 446.057 128.995 445.812 128.641 445.641C128.288 445.467 127.889 445.379 127.446 445.379C126.977 445.379 126.568 445.475 126.219 445.667C125.869 445.859 125.601 446.129 125.413 446.479C125.226 446.828 125.132 447.237 125.132 447.706H123.246C123.246 446.909 123.43 446.212 123.796 445.616C124.163 445.019 124.665 444.557 125.305 444.229C125.944 443.896 126.67 443.73 127.484 443.73C128.307 443.73 129.031 443.894 129.658 444.222C130.288 444.546 130.781 444.989 131.134 445.552C131.488 446.11 131.665 446.741 131.665 447.444C131.665 447.93 131.573 448.405 131.39 448.869C131.211 449.334 130.898 449.852 130.45 450.423C130.003 450.989 129.381 451.678 128.584 452.487L125.982 455.21V455.306H131.876V457H123.259ZM134.298 457V455.568L138.728 450.979C139.201 450.48 139.591 450.043 139.898 449.668C140.209 449.289 140.441 448.929 140.594 448.588C140.748 448.247 140.825 447.885 140.825 447.501C140.825 447.067 140.722 446.692 140.518 446.376C140.313 446.057 140.034 445.812 139.68 445.641C139.327 445.467 138.928 445.379 138.485 445.379C138.016 445.379 137.607 445.475 137.258 445.667C136.908 445.859 136.64 446.129 136.452 446.479C136.265 446.828 136.171 447.237 136.171 447.706H134.286C134.286 446.909 134.469 446.212 134.835 445.616C135.202 445.019 135.705 444.557 136.344 444.229C136.983 443.896 137.71 443.73 138.523 443.73C139.346 443.73 140.07 443.894 140.697 444.222C141.327 444.546 141.82 444.989 142.173 445.552C142.527 446.11 142.704 446.741 142.704 447.444C142.704 447.93 142.612 448.405 142.429 448.869C142.25 449.334 141.937 449.852 141.489 450.423C141.042 450.989 140.42 451.678 139.623 452.487L137.021 455.21V455.306H142.915V457H134.298Z" fill="black"/>
<path d="M123.259 566V564.568L127.689 559.979C128.162 559.48 128.552 559.043 128.859 558.668C129.17 558.289 129.402 557.929 129.555 557.588C129.709 557.247 129.786 556.885 129.786 556.501C129.786 556.067 129.683 555.692 129.479 555.376C129.274 555.057 128.995 554.812 128.641 554.641C128.288 554.467 127.889 554.379 127.446 554.379C126.977 554.379 126.568 554.475 126.219 554.667C125.869 554.859 125.601 555.129 125.413 555.479C125.226 555.828 125.132 556.237 125.132 556.706H123.246C123.246 555.909 123.43 555.212 123.796 554.616C124.163 554.019 124.665 553.557 125.305 553.229C125.944 552.896 126.67 552.73 127.484 552.73C128.307 552.73 129.031 552.894 129.658 553.222C130.288 553.546 130.781 553.989 131.134 554.552C131.488 555.11 131.665 555.741 131.665 556.444C131.665 556.93 131.573 557.405 131.39 557.869C131.211 558.334 130.898 558.852 130.45 559.423C130.003 559.989 129.381 560.678 128.584 561.487L125.982 564.21V564.306H131.876V566H123.259ZM138.651 552.698C139.235 552.702 139.81 552.809 140.377 553.018C140.944 553.227 141.455 553.57 141.911 554.047C142.371 554.52 142.738 555.159 143.011 555.964C143.288 556.77 143.428 557.776 143.433 558.982C143.428 560.128 143.311 561.148 143.081 562.043C142.855 562.934 142.527 563.686 142.097 564.3C141.666 564.913 141.146 565.38 140.537 565.7C139.932 566.019 139.248 566.179 138.485 566.179C137.705 566.179 137.013 566.026 136.408 565.719C135.803 565.412 135.31 564.988 134.931 564.447C134.552 563.901 134.315 563.275 134.222 562.567H136.171C136.299 563.13 136.559 563.586 136.951 563.935C137.347 564.281 137.859 564.453 138.485 564.453C139.444 564.453 140.192 564.036 140.729 563.2C141.266 562.361 141.536 561.189 141.54 559.685H141.438C141.217 560.051 140.94 560.366 140.607 560.631C140.279 560.895 139.911 561.099 139.501 561.244C139.092 561.389 138.656 561.462 138.191 561.462C137.437 561.462 136.749 561.276 136.126 560.906C135.509 560.535 135.016 560.026 134.65 559.378C134.288 558.73 134.107 557.989 134.107 557.153C134.107 556.318 134.294 555.564 134.669 554.891C135.048 554.213 135.577 553.678 136.254 553.286C136.936 552.89 137.735 552.694 138.651 552.698ZM138.658 554.36C138.159 554.36 137.71 554.484 137.309 554.731C136.913 554.978 136.599 555.31 136.369 555.728C136.139 556.146 136.024 556.612 136.024 557.128C136.024 557.635 136.135 558.095 136.357 558.509C136.582 558.922 136.889 559.25 137.277 559.493C137.669 559.732 138.116 559.851 138.619 559.851C138.994 559.851 139.344 559.778 139.668 559.634C139.991 559.489 140.273 559.288 140.511 559.033C140.754 558.773 140.944 558.479 141.08 558.151C141.221 557.818 141.291 557.471 141.291 557.109C141.291 556.619 141.176 556.165 140.946 555.747C140.72 555.33 140.409 554.995 140.013 554.744C139.616 554.488 139.165 554.36 138.658 554.36Z" fill="black"/>
<path d="M240.817 566.179C239.939 566.179 239.155 566.028 238.464 565.725C237.778 565.423 237.235 565.003 236.835 564.466C236.438 563.925 236.225 563.298 236.195 562.587H238.202C238.228 562.974 238.358 563.311 238.592 563.597C238.831 563.878 239.142 564.095 239.526 564.249C239.909 564.402 240.335 564.479 240.804 564.479C241.32 564.479 241.776 564.389 242.172 564.21C242.572 564.031 242.886 563.782 243.112 563.462C243.337 563.138 243.45 562.766 243.45 562.344C243.45 561.905 243.337 561.519 243.112 561.187C242.89 560.85 242.564 560.586 242.134 560.394C241.707 560.202 241.192 560.107 240.587 560.107H239.481V558.496H240.587C241.072 558.496 241.499 558.408 241.865 558.234C242.236 558.059 242.526 557.816 242.734 557.505C242.943 557.19 243.048 556.821 243.048 556.399C243.048 555.994 242.956 555.643 242.773 555.344C242.594 555.042 242.338 554.805 242.006 554.635C241.678 554.464 241.29 554.379 240.842 554.379C240.416 554.379 240.018 554.458 239.647 554.616C239.281 554.769 238.982 554.991 238.752 555.281C238.522 555.566 238.398 555.909 238.381 556.31H236.47C236.491 555.602 236.7 554.98 237.097 554.443C237.497 553.906 238.026 553.487 238.682 553.184C239.338 552.881 240.067 552.73 240.868 552.73C241.707 552.73 242.432 552.894 243.041 553.222C243.655 553.546 244.128 553.979 244.46 554.52C244.797 555.061 244.963 555.653 244.959 556.297C244.963 557.03 244.759 557.652 244.345 558.163C243.936 558.675 243.391 559.018 242.709 559.192V559.295C243.578 559.427 244.251 559.772 244.729 560.33C245.21 560.888 245.449 561.581 245.445 562.408C245.449 563.128 245.249 563.773 244.844 564.344C244.443 564.915 243.896 565.365 243.201 565.693C242.506 566.017 241.712 566.179 240.817 566.179ZM252.418 566.217C251.408 566.213 250.545 565.947 249.83 565.418C249.114 564.89 248.566 564.121 248.187 563.111C247.808 562.101 247.618 560.884 247.618 559.461C247.618 558.042 247.808 556.83 248.187 555.824C248.57 554.818 249.12 554.051 249.836 553.523C250.556 552.994 251.417 552.73 252.418 552.73C253.42 552.73 254.278 552.996 254.994 553.529C255.71 554.058 256.258 554.825 256.637 555.83C257.021 556.832 257.212 558.042 257.212 559.461C257.212 560.888 257.023 562.107 256.643 563.117C256.264 564.123 255.717 564.892 255.001 565.425C254.285 565.953 253.424 566.217 252.418 566.217ZM252.418 564.511C253.305 564.511 253.997 564.078 254.496 563.213C254.999 562.348 255.25 561.097 255.25 559.461C255.25 558.374 255.135 557.456 254.905 556.706C254.679 555.952 254.353 555.381 253.927 554.993C253.505 554.601 253.002 554.405 252.418 554.405C251.536 554.405 250.844 554.839 250.341 555.709C249.838 556.578 249.585 557.829 249.58 559.461C249.58 560.552 249.693 561.474 249.919 562.229C250.149 562.979 250.475 563.548 250.897 563.935C251.319 564.319 251.826 564.511 252.418 564.511Z" fill="black"/>
<path d="M237.259 113V111.568L241.689 106.979C242.162 106.48 242.552 106.043 242.859 105.668C243.17 105.289 243.402 104.929 243.555 104.588C243.709 104.247 243.786 103.885 243.786 103.501C243.786 103.067 243.683 102.692 243.479 102.376C243.274 102.057 242.995 101.812 242.641 101.641C242.288 101.467 241.889 101.379 241.446 101.379C240.977 101.379 240.568 101.475 240.219 101.667C239.869 101.859 239.601 102.129 239.413 102.479C239.226 102.828 239.132 103.237 239.132 103.706H237.246C237.246 102.909 237.43 102.212 237.796 101.616C238.163 101.019 238.665 100.557 239.305 100.229C239.944 99.8963 240.67 99.7301 241.484 99.7301C242.307 99.7301 243.031 99.8942 243.658 100.222C244.288 100.546 244.781 100.989 245.134 101.552C245.488 102.11 245.665 102.741 245.665 103.444C245.665 103.93 245.573 104.405 245.39 104.869C245.211 105.334 244.898 105.852 244.45 106.423C244.003 106.989 243.381 107.678 242.584 108.487L239.982 111.21V111.306H245.876V113H237.259Z" fill="black"/>
<path d="M241.612 216.698C242.196 216.702 242.771 216.809 243.338 217.018C243.905 217.227 244.416 217.57 244.872 218.047C245.332 218.52 245.699 219.159 245.972 219.964C246.249 220.77 246.389 221.776 246.393 222.982C246.389 224.128 246.272 225.148 246.042 226.043C245.816 226.934 245.488 227.686 245.058 228.3C244.627 228.913 244.107 229.38 243.498 229.7C242.893 230.019 242.209 230.179 241.446 230.179C240.666 230.179 239.974 230.026 239.369 229.719C238.763 229.412 238.271 228.988 237.892 228.447C237.513 227.901 237.276 227.275 237.183 226.567H239.132C239.26 227.13 239.52 227.586 239.912 227.935C240.308 228.281 240.82 228.453 241.446 228.453C242.405 228.453 243.153 228.036 243.69 227.2C244.227 226.361 244.497 225.189 244.501 223.685H244.399C244.178 224.051 243.901 224.366 243.568 224.631C243.24 224.895 242.871 225.099 242.462 225.244C242.053 225.389 241.616 225.462 241.152 225.462C240.398 225.462 239.71 225.276 239.087 224.906C238.469 224.535 237.977 224.026 237.611 223.378C237.249 222.73 237.067 221.989 237.067 221.153C237.067 220.318 237.255 219.564 237.63 218.891C238.009 218.213 238.538 217.678 239.215 217.286C239.897 216.89 240.696 216.694 241.612 216.698ZM241.619 218.36C241.12 218.36 240.67 218.484 240.27 218.731C239.874 218.978 239.56 219.31 239.33 219.728C239.1 220.146 238.985 220.612 238.985 221.128C238.985 221.635 239.096 222.095 239.317 222.509C239.543 222.922 239.85 223.25 240.238 223.493C240.63 223.732 241.077 223.851 241.58 223.851C241.955 223.851 242.305 223.778 242.629 223.634C242.952 223.489 243.234 223.288 243.472 223.033C243.715 222.773 243.905 222.479 244.041 222.151C244.182 221.818 244.252 221.471 244.252 221.109C244.252 220.619 244.137 220.165 243.907 219.747C243.681 219.33 243.37 218.995 242.974 218.744C242.577 218.488 242.126 218.36 241.619 218.36Z" fill="black"/>
<path d="M241.226 328.909V342H239.244V330.891H239.168L236.036 332.936V331.044L239.302 328.909H241.226ZM249.337 342.179C248.754 342.17 248.178 342.064 247.612 341.859C247.049 341.655 246.538 341.314 246.077 340.837C245.617 340.359 245.249 339.718 244.972 338.913C244.699 338.107 244.562 337.102 244.562 335.896C244.562 334.749 244.675 333.731 244.901 332.84C245.131 331.945 245.462 331.191 245.892 330.577C246.322 329.964 246.842 329.497 247.452 329.178C248.061 328.858 248.745 328.698 249.504 328.698C250.283 328.698 250.976 328.854 251.581 329.165C252.186 329.476 252.676 329.902 253.051 330.443C253.43 330.984 253.671 331.607 253.773 332.31H251.824C251.692 331.751 251.43 331.3 251.038 330.955C250.646 330.605 250.134 330.43 249.504 330.43C248.545 330.43 247.797 330.85 247.26 331.69C246.727 332.525 246.459 333.692 246.455 335.192H246.55C246.776 334.822 247.053 334.506 247.381 334.246C247.714 333.982 248.085 333.78 248.494 333.639C248.907 333.494 249.342 333.422 249.798 333.422C250.556 333.422 251.242 333.607 251.856 333.978C252.474 334.344 252.966 334.852 253.332 335.499C253.699 336.147 253.882 336.888 253.882 337.724C253.882 338.559 253.692 339.315 253.313 339.993C252.938 340.67 252.41 341.207 251.728 341.604C251.046 341.996 250.249 342.188 249.337 342.179ZM249.331 340.517C249.834 340.517 250.283 340.393 250.68 340.146C251.076 339.899 251.389 339.567 251.619 339.149C251.849 338.732 251.964 338.265 251.964 337.749C251.964 337.246 251.852 336.788 251.626 336.375C251.404 335.962 251.097 335.634 250.705 335.391C250.317 335.148 249.874 335.026 249.376 335.026C248.996 335.026 248.645 335.099 248.321 335.244C248.001 335.388 247.72 335.589 247.477 335.844C247.234 336.1 247.043 336.394 246.902 336.727C246.766 337.055 246.697 337.402 246.697 337.768C246.697 338.259 246.81 338.712 247.036 339.13C247.266 339.548 247.58 339.884 247.976 340.14C248.376 340.391 248.828 340.517 249.331 340.517Z" fill="black"/>
<path d="M236.259 457V455.568L240.689 450.979C241.162 450.48 241.552 450.043 241.859 449.668C242.17 449.289 242.402 448.929 242.555 448.588C242.709 448.247 242.786 447.885 242.786 447.501C242.786 447.067 242.683 446.692 242.479 446.376C242.274 446.057 241.995 445.812 241.641 445.641C241.288 445.467 240.889 445.379 240.446 445.379C239.977 445.379 239.568 445.475 239.219 445.667C238.869 445.859 238.601 446.129 238.413 446.479C238.226 446.828 238.132 447.237 238.132 447.706H236.246C236.246 446.909 236.43 446.212 236.796 445.616C237.163 445.019 237.665 444.557 238.305 444.229C238.944 443.896 239.67 443.73 240.484 443.73C241.307 443.73 242.031 443.894 242.658 444.222C243.288 444.546 243.781 444.989 244.134 445.552C244.488 446.11 244.665 446.741 244.665 447.444C244.665 447.93 244.573 448.405 244.39 448.869C244.211 449.334 243.898 449.852 243.45 450.423C243.003 450.989 242.381 451.678 241.584 452.487L238.982 455.21V455.306H244.876V457H236.259ZM251.856 457.179C250.978 457.179 250.194 457.028 249.504 456.725C248.817 456.423 248.274 456.003 247.874 455.466C247.477 454.925 247.264 454.298 247.234 453.587H249.241C249.267 453.974 249.397 454.311 249.631 454.597C249.87 454.878 250.181 455.095 250.565 455.249C250.948 455.402 251.374 455.479 251.843 455.479C252.359 455.479 252.815 455.389 253.211 455.21C253.612 455.031 253.925 454.782 254.151 454.462C254.376 454.138 254.489 453.766 254.489 453.344C254.489 452.905 254.376 452.519 254.151 452.187C253.929 451.85 253.603 451.586 253.173 451.394C252.746 451.202 252.231 451.107 251.626 451.107H250.52V449.496H251.626C252.112 449.496 252.538 449.408 252.904 449.234C253.275 449.059 253.565 448.816 253.773 448.505C253.982 448.19 254.087 447.821 254.087 447.399C254.087 446.994 253.995 446.643 253.812 446.344C253.633 446.042 253.377 445.805 253.045 445.635C252.717 445.464 252.329 445.379 251.881 445.379C251.455 445.379 251.057 445.458 250.686 445.616C250.32 445.769 250.021 445.991 249.791 446.281C249.561 446.566 249.438 446.909 249.42 447.31H247.509C247.531 446.602 247.739 445.98 248.136 445.443C248.536 444.906 249.065 444.487 249.721 444.184C250.377 443.881 251.106 443.73 251.907 443.73C252.746 443.73 253.471 443.894 254.08 444.222C254.694 444.546 255.167 444.979 255.499 445.52C255.836 446.061 256.002 446.653 255.998 447.297C256.002 448.03 255.798 448.652 255.384 449.163C254.975 449.675 254.43 450.018 253.748 450.192V450.295C254.617 450.427 255.29 450.772 255.768 451.33C256.249 451.888 256.488 452.581 256.484 453.408C256.488 454.128 256.288 454.773 255.883 455.344C255.482 455.915 254.935 456.365 254.24 456.693C253.545 457.017 252.751 457.179 251.856 457.179Z" fill="black"/>
<path d="M354.817 113.179C353.939 113.179 353.155 113.028 352.464 112.725C351.778 112.423 351.235 112.003 350.835 111.466C350.438 110.925 350.225 110.298 350.195 109.587H352.202C352.228 109.974 352.358 110.311 352.592 110.597C352.831 110.878 353.142 111.095 353.526 111.249C353.909 111.402 354.335 111.479 354.804 111.479C355.32 111.479 355.776 111.389 356.172 111.21C356.572 111.031 356.886 110.782 357.112 110.462C357.337 110.138 357.45 109.766 357.45 109.344C357.45 108.905 357.337 108.519 357.112 108.187C356.89 107.85 356.564 107.586 356.134 107.394C355.707 107.202 355.192 107.107 354.587 107.107H353.481V105.496H354.587C355.072 105.496 355.499 105.408 355.865 105.234C356.236 105.059 356.526 104.816 356.734 104.505C356.943 104.19 357.048 103.821 357.048 103.399C357.048 102.994 356.956 102.643 356.773 102.344C356.594 102.042 356.338 101.805 356.006 101.635C355.678 101.464 355.29 101.379 354.842 101.379C354.416 101.379 354.018 101.458 353.647 101.616C353.281 101.769 352.982 101.991 352.752 102.281C352.522 102.566 352.398 102.909 352.381 103.31H350.47C350.491 102.602 350.7 101.98 351.097 101.443C351.497 100.906 352.026 100.487 352.682 100.184C353.338 99.8814 354.067 99.7301 354.868 99.7301C355.707 99.7301 356.432 99.8942 357.041 100.222C357.655 100.546 358.128 100.979 358.46 101.52C358.797 102.061 358.963 102.653 358.959 103.297C358.963 104.03 358.759 104.652 358.345 105.163C357.936 105.675 357.391 106.018 356.709 106.192V106.295C357.578 106.427 358.251 106.772 358.729 107.33C359.21 107.888 359.449 108.581 359.445 109.408C359.449 110.128 359.249 110.773 358.844 111.344C358.443 111.915 357.896 112.365 357.201 112.693C356.506 113.017 355.712 113.179 354.817 113.179Z" fill="black"/>
<path d="M355.226 216.909V230H353.244V218.891H353.168L350.036 220.936V219.044L353.302 216.909H355.226ZM363.325 230.217C362.315 230.213 361.452 229.947 360.736 229.418C360.02 228.89 359.472 228.121 359.093 227.111C358.714 226.101 358.524 224.884 358.524 223.461C358.524 222.042 358.714 220.83 359.093 219.824C359.477 218.818 360.026 218.051 360.742 217.523C361.462 216.994 362.323 216.73 363.325 216.73C364.326 216.73 365.185 216.996 365.901 217.529C366.616 218.058 367.164 218.825 367.543 219.83C367.927 220.832 368.119 222.042 368.119 223.461C368.119 224.888 367.929 226.107 367.55 227.117C367.17 228.123 366.623 228.892 365.907 229.425C365.191 229.953 364.33 230.217 363.325 230.217ZM363.325 228.511C364.211 228.511 364.903 228.078 365.402 227.213C365.905 226.348 366.156 225.097 366.156 223.461C366.156 222.374 366.041 221.456 365.811 220.706C365.585 219.952 365.259 219.381 364.833 218.993C364.411 218.601 363.908 218.405 363.325 218.405C362.442 218.405 361.75 218.839 361.247 219.709C360.744 220.578 360.491 221.829 360.487 223.461C360.487 224.552 360.599 225.474 360.825 226.229C361.055 226.979 361.381 227.548 361.803 227.935C362.225 228.319 362.732 228.511 363.325 228.511Z" fill="black"/>
<path d="M354.226 328.909V342H352.244V330.891H352.168L349.036 332.936V331.044L352.302 328.909H354.226ZM358.208 342L363.923 330.699V330.603H357.313V328.909H365.968V330.661L360.273 342H358.208Z" fill="black"/>
<path d="M349.259 457V455.568L353.689 450.979C354.162 450.48 354.552 450.043 354.859 449.668C355.17 449.289 355.402 448.929 355.555 448.588C355.709 448.247 355.786 447.885 355.786 447.501C355.786 447.067 355.683 446.692 355.479 446.376C355.274 446.057 354.995 445.812 354.641 445.641C354.288 445.467 353.889 445.379 353.446 445.379C352.977 445.379 352.568 445.475 352.219 445.667C351.869 445.859 351.601 446.129 351.413 446.479C351.226 446.828 351.132 447.237 351.132 447.706H349.246C349.246 446.909 349.43 446.212 349.796 445.616C350.163 445.019 350.665 444.557 351.305 444.229C351.944 443.896 352.67 443.73 353.484 443.73C354.307 443.73 355.031 443.894 355.658 444.222C356.288 444.546 356.781 444.989 357.134 445.552C357.488 446.11 357.665 446.741 357.665 447.444C357.665 447.93 357.573 448.405 357.39 448.869C357.211 449.334 356.898 449.852 356.45 450.423C356.003 450.989 355.381 451.678 354.584 452.487L351.982 455.21V455.306H357.876V457H349.259ZM359.742 454.443V452.845L365.399 443.909H366.658V446.261H365.859L361.813 452.666V452.768H369.567V454.443H359.742ZM365.949 457V453.957L365.962 453.229V443.909H367.835V457H365.949Z" fill="black"/>
<path d="M461.984 110.443V108.845L467.641 99.9091H468.901V102.261H468.102L464.055 108.666V108.768H471.809V110.443H461.984ZM468.191 113V109.957L468.204 109.229V99.9091H470.077V113H468.191Z" fill="black"/>
<path d="M467.226 216.909V230H465.244V218.891H465.168L462.036 220.936V219.044L465.302 216.909H467.226ZM475.734 216.909V230H473.752V218.891H473.675L470.543 220.936V219.044L473.81 216.909H475.734Z" fill="black"/>
<path d="M466.226 328.909V342H464.244V330.891H464.168L461.036 332.936V331.044L464.302 328.909H466.226ZM474.19 342.179C473.274 342.179 472.464 342.021 471.761 341.706C471.063 341.391 470.515 340.956 470.119 340.402C469.722 339.848 469.526 339.217 469.531 338.51C469.526 337.956 469.639 337.447 469.869 336.982C470.104 336.513 470.421 336.124 470.822 335.812C471.222 335.497 471.67 335.297 472.164 335.212V335.135C471.512 334.977 470.99 334.628 470.598 334.087C470.206 333.545 470.012 332.923 470.016 332.22C470.012 331.551 470.189 330.955 470.547 330.43C470.909 329.902 471.406 329.487 472.036 329.184C472.667 328.881 473.385 328.73 474.19 328.73C474.987 328.73 475.699 328.884 476.325 329.19C476.956 329.493 477.452 329.908 477.815 330.437C478.177 330.961 478.36 331.555 478.364 332.22C478.36 332.923 478.16 333.545 477.763 334.087C477.367 334.628 476.852 334.977 476.217 335.135V335.212C476.707 335.297 477.148 335.497 477.54 335.812C477.936 336.124 478.251 336.513 478.486 336.982C478.724 337.447 478.846 337.956 478.85 338.51C478.846 339.217 478.646 339.848 478.249 340.402C477.853 340.956 477.303 341.391 476.6 341.706C475.901 342.021 475.098 342.179 474.19 342.179ZM474.19 340.562C474.732 340.562 475.2 340.472 475.597 340.293C475.993 340.11 476.3 339.857 476.517 339.533C476.734 339.205 476.845 338.821 476.849 338.382C476.845 337.926 476.726 337.523 476.491 337.174C476.261 336.825 475.948 336.55 475.552 336.349C475.156 336.149 474.702 336.049 474.19 336.049C473.675 336.049 473.217 336.149 472.816 336.349C472.415 336.55 472.1 336.825 471.87 337.174C471.64 337.523 471.527 337.926 471.531 338.382C471.527 338.821 471.631 339.205 471.844 339.533C472.062 339.857 472.371 340.11 472.771 340.293C473.172 340.472 473.645 340.562 474.19 340.562ZM474.19 334.47C474.625 334.47 475.011 334.383 475.347 334.208C475.684 334.033 475.948 333.79 476.14 333.479C476.336 333.168 476.436 332.804 476.44 332.386C476.436 331.977 476.338 331.619 476.146 331.312C475.959 331.006 475.697 330.769 475.36 330.603C475.023 330.433 474.634 330.347 474.19 330.347C473.739 330.347 473.342 330.433 473.001 330.603C472.665 330.769 472.403 331.006 472.215 331.312C472.028 331.619 471.936 331.977 471.94 332.386C471.936 332.804 472.03 333.168 472.222 333.479C472.413 333.79 472.678 334.033 473.014 334.208C473.355 334.383 473.747 334.47 474.19 334.47Z" fill="black"/>
<path d="M461.259 457V455.568L465.689 450.979C466.162 450.48 466.552 450.043 466.859 449.668C467.17 449.289 467.402 448.929 467.555 448.588C467.709 448.247 467.786 447.885 467.786 447.501C467.786 447.067 467.683 446.692 467.479 446.376C467.274 446.057 466.995 445.812 466.641 445.641C466.288 445.467 465.889 445.379 465.446 445.379C464.977 445.379 464.568 445.475 464.219 445.667C463.869 445.859 463.601 446.129 463.413 446.479C463.226 446.828 463.132 447.237 463.132 447.706H461.246C461.246 446.909 461.43 446.212 461.796 445.616C462.163 445.019 462.665 444.557 463.305 444.229C463.944 443.896 464.67 443.73 465.484 443.73C466.307 443.73 467.031 443.894 467.658 444.222C468.288 444.546 468.781 444.989 469.134 445.552C469.488 446.11 469.665 446.741 469.665 447.444C469.665 447.93 469.573 448.405 469.39 448.869C469.211 449.334 468.898 449.852 468.45 450.423C468.003 450.989 467.381 451.678 466.584 452.487L463.982 455.21V455.306H469.876V457H461.259ZM476.619 457.179C475.818 457.179 475.098 457.026 474.459 456.719C473.824 456.408 473.317 455.982 472.938 455.44C472.558 454.899 472.356 454.281 472.33 453.587H474.248C474.295 454.149 474.544 454.612 474.996 454.974C475.447 455.336 475.989 455.517 476.619 455.517C477.122 455.517 477.567 455.402 477.955 455.172C478.347 454.938 478.654 454.616 478.876 454.207C479.102 453.798 479.214 453.331 479.214 452.807C479.214 452.274 479.099 451.799 478.869 451.381C478.639 450.964 478.322 450.636 477.917 450.397C477.516 450.158 477.056 450.037 476.536 450.033C476.14 450.033 475.741 450.101 475.341 450.237C474.94 450.374 474.616 450.553 474.369 450.774L472.56 450.506L473.295 443.909H480.493V445.603H474.938L474.523 449.266H474.599C474.855 449.018 475.194 448.812 475.616 448.646C476.042 448.479 476.498 448.396 476.984 448.396C477.781 448.396 478.49 448.586 479.112 448.965C479.739 449.344 480.231 449.862 480.589 450.518C480.951 451.17 481.13 451.92 481.126 452.768C481.13 453.616 480.938 454.373 480.55 455.038C480.167 455.702 479.634 456.227 478.952 456.61C478.275 456.989 477.497 457.179 476.619 457.179Z" fill="black"/>
<path d="M579.58 113.179C578.779 113.179 578.059 113.026 577.42 112.719C576.785 112.408 576.278 111.982 575.898 111.44C575.519 110.899 575.317 110.281 575.291 109.587H577.209C577.256 110.149 577.505 110.612 577.957 110.974C578.408 111.336 578.95 111.517 579.58 111.517C580.083 111.517 580.528 111.402 580.916 111.172C581.308 110.938 581.615 110.616 581.837 110.207C582.063 109.798 582.175 109.331 582.175 108.807C582.175 108.274 582.06 107.799 581.83 107.381C581.6 106.964 581.283 106.636 580.878 106.397C580.477 106.158 580.017 106.037 579.497 106.033C579.101 106.033 578.702 106.101 578.302 106.237C577.901 106.374 577.577 106.553 577.33 106.774L575.521 106.506L576.256 99.9091H583.454V101.603H577.899L577.484 105.266H577.56C577.816 105.018 578.155 104.812 578.577 104.646C579.003 104.479 579.459 104.396 579.945 104.396C580.741 104.396 581.451 104.586 582.073 104.965C582.7 105.344 583.192 105.862 583.55 106.518C583.912 107.17 584.091 107.92 584.087 108.768C584.091 109.616 583.899 110.373 583.511 111.038C583.128 111.702 582.595 112.227 581.913 112.61C581.236 112.989 580.458 113.179 579.58 113.179Z" fill="black"/>
<path d="M580.226 216.909V230H578.244V218.891H578.168L575.036 220.936V219.044L578.302 216.909H580.226ZM583.767 230V228.568L588.197 223.979C588.67 223.48 589.06 223.043 589.366 222.668C589.678 222.289 589.91 221.929 590.063 221.588C590.217 221.247 590.293 220.885 590.293 220.501C590.293 220.067 590.191 219.692 589.987 219.376C589.782 219.057 589.503 218.812 589.149 218.641C588.795 218.467 588.397 218.379 587.954 218.379C587.485 218.379 587.076 218.475 586.727 218.667C586.377 218.859 586.109 219.129 585.921 219.479C585.734 219.828 585.64 220.237 585.64 220.706H583.754C583.754 219.909 583.938 219.212 584.304 218.616C584.67 218.019 585.173 217.557 585.812 217.229C586.452 216.896 587.178 216.73 587.992 216.73C588.815 216.73 589.539 216.894 590.165 217.222C590.796 217.546 591.288 217.989 591.642 218.552C591.996 219.11 592.173 219.741 592.173 220.444C592.173 220.93 592.081 221.405 591.898 221.869C591.719 222.334 591.406 222.852 590.958 223.423C590.511 223.989 589.888 224.678 589.092 225.487L586.49 228.21V228.306H592.384V230H583.767Z" fill="black"/>
<path d="M579.226 328.909V342H577.244V330.891H577.168L574.036 332.936V331.044L577.302 328.909H579.226ZM587.12 328.698C587.704 328.702 588.279 328.809 588.846 329.018C589.413 329.227 589.924 329.57 590.38 330.047C590.84 330.52 591.207 331.159 591.479 331.964C591.756 332.77 591.897 333.776 591.901 334.982C591.897 336.128 591.78 337.148 591.55 338.043C591.324 338.934 590.996 339.686 590.565 340.3C590.135 340.913 589.615 341.38 589.006 341.7C588.401 342.019 587.717 342.179 586.954 342.179C586.174 342.179 585.482 342.026 584.876 341.719C584.271 341.412 583.779 340.988 583.4 340.447C583.021 339.901 582.784 339.275 582.69 338.567H584.64C584.768 339.13 585.028 339.586 585.42 339.935C585.816 340.281 586.327 340.453 586.954 340.453C587.913 340.453 588.661 340.036 589.197 339.2C589.734 338.361 590.005 337.189 590.009 335.685H589.907C589.685 336.051 589.408 336.366 589.076 336.631C588.748 336.895 588.379 337.099 587.97 337.244C587.561 337.389 587.124 337.462 586.66 337.462C585.906 337.462 585.217 337.276 584.595 336.906C583.977 336.535 583.485 336.026 583.119 335.378C582.756 334.73 582.575 333.989 582.575 333.153C582.575 332.318 582.763 331.564 583.138 330.891C583.517 330.213 584.045 329.678 584.723 329.286C585.405 328.89 586.204 328.694 587.12 328.698ZM587.126 330.36C586.628 330.36 586.178 330.484 585.778 330.731C585.381 330.978 585.068 331.31 584.838 331.728C584.608 332.146 584.493 332.612 584.493 333.128C584.493 333.635 584.604 334.095 584.825 334.509C585.051 334.922 585.358 335.25 585.746 335.493C586.138 335.732 586.585 335.851 587.088 335.851C587.463 335.851 587.813 335.778 588.136 335.634C588.46 335.489 588.741 335.288 588.98 335.033C589.223 334.773 589.413 334.479 589.549 334.151C589.69 333.818 589.76 333.471 589.76 333.109C589.76 332.619 589.645 332.165 589.415 331.747C589.189 331.33 588.878 330.995 588.482 330.744C588.085 330.488 587.634 330.36 587.126 330.36Z" fill="black"/>
<path d="M574.259 457V455.568L578.689 450.979C579.162 450.48 579.552 450.043 579.859 449.668C580.17 449.289 580.402 448.929 580.555 448.588C580.709 448.247 580.786 447.885 580.786 447.501C580.786 447.067 580.683 446.692 580.479 446.376C580.274 446.057 579.995 445.812 579.641 445.641C579.288 445.467 578.889 445.379 578.446 445.379C577.977 445.379 577.568 445.475 577.219 445.667C576.869 445.859 576.601 446.129 576.413 446.479C576.226 446.828 576.132 447.237 576.132 447.706H574.246C574.246 446.909 574.43 446.212 574.796 445.616C575.163 445.019 575.665 444.557 576.305 444.229C576.944 443.896 577.67 443.73 578.484 443.73C579.307 443.73 580.031 443.894 580.658 444.222C581.288 444.546 581.781 444.989 582.134 445.552C582.488 446.11 582.665 446.741 582.665 447.444C582.665 447.93 582.573 448.405 582.39 448.869C582.211 449.334 581.898 449.852 581.45 450.423C581.003 450.989 580.381 451.678 579.584 452.487L576.982 455.21V455.306H582.876V457H574.259ZM589.869 457.179C589.285 457.17 588.71 457.064 588.143 456.859C587.58 456.655 587.069 456.314 586.609 455.837C586.148 455.359 585.78 454.718 585.503 453.913C585.23 453.107 585.094 452.102 585.094 450.896C585.094 449.749 585.207 448.731 585.433 447.84C585.663 446.945 585.993 446.191 586.423 445.577C586.854 444.964 587.374 444.497 587.983 444.178C588.592 443.858 589.276 443.698 590.035 443.698C590.815 443.698 591.507 443.854 592.112 444.165C592.717 444.476 593.207 444.902 593.582 445.443C593.962 445.984 594.202 446.607 594.305 447.31H592.355C592.223 446.751 591.961 446.3 591.569 445.955C591.177 445.605 590.665 445.43 590.035 445.43C589.076 445.43 588.328 445.85 587.791 446.69C587.259 447.525 586.99 448.692 586.986 450.192H587.082C587.308 449.822 587.585 449.506 587.913 449.246C588.245 448.982 588.616 448.78 589.025 448.639C589.438 448.494 589.873 448.422 590.329 448.422C591.087 448.422 591.773 448.607 592.387 448.978C593.005 449.344 593.497 449.852 593.864 450.499C594.23 451.147 594.413 451.888 594.413 452.724C594.413 453.559 594.224 454.315 593.844 454.993C593.469 455.67 592.941 456.207 592.259 456.604C591.577 456.996 590.781 457.188 589.869 457.179ZM589.862 455.517C590.365 455.517 590.815 455.393 591.211 455.146C591.607 454.899 591.92 454.567 592.151 454.149C592.381 453.732 592.496 453.265 592.496 452.749C592.496 452.246 592.383 451.788 592.157 451.375C591.935 450.962 591.629 450.634 591.237 450.391C590.849 450.148 590.406 450.026 589.907 450.026C589.528 450.026 589.176 450.099 588.852 450.244C588.533 450.388 588.251 450.589 588.009 450.844C587.766 451.1 587.574 451.394 587.433 451.727C587.297 452.055 587.229 452.402 587.229 452.768C587.229 453.259 587.342 453.712 587.567 454.13C587.798 454.548 588.111 454.884 588.507 455.14C588.908 455.391 589.359 455.517 589.862 455.517Z" fill="black"/>
<path d="M692.83 113.179C692.246 113.17 691.67 113.064 691.104 112.859C690.541 112.655 690.03 112.314 689.57 111.837C689.109 111.359 688.741 110.718 688.464 109.913C688.191 109.107 688.055 108.102 688.055 106.896C688.055 105.749 688.168 104.731 688.393 103.84C688.624 102.945 688.954 102.191 689.384 101.577C689.815 100.964 690.335 100.497 690.944 100.178C691.553 99.858 692.237 99.6982 692.996 99.6982C693.776 99.6982 694.468 99.8537 695.073 100.165C695.678 100.476 696.168 100.902 696.543 101.443C696.923 101.984 697.163 102.607 697.266 103.31H695.316C695.184 102.751 694.922 102.3 694.53 101.955C694.138 101.605 693.626 101.43 692.996 101.43C692.037 101.43 691.289 101.85 690.752 102.69C690.219 103.525 689.951 104.692 689.947 106.192H690.043C690.268 105.822 690.545 105.506 690.874 105.246C691.206 104.982 691.577 104.78 691.986 104.639C692.399 104.494 692.834 104.422 693.29 104.422C694.048 104.422 694.734 104.607 695.348 104.978C695.966 105.344 696.458 105.852 696.825 106.499C697.191 107.147 697.374 107.888 697.374 108.724C697.374 109.559 697.185 110.315 696.805 110.993C696.43 111.67 695.902 112.207 695.22 112.604C694.538 112.996 693.741 113.188 692.83 113.179ZM692.823 111.517C693.326 111.517 693.776 111.393 694.172 111.146C694.568 110.899 694.881 110.567 695.112 110.149C695.342 109.732 695.457 109.265 695.457 108.749C695.457 108.246 695.344 107.788 695.118 107.375C694.896 106.962 694.589 106.634 694.197 106.391C693.81 106.148 693.366 106.026 692.868 106.026C692.489 106.026 692.137 106.099 691.813 106.244C691.494 106.388 691.212 106.589 690.969 106.844C690.727 107.1 690.535 107.394 690.394 107.727C690.258 108.055 690.19 108.402 690.19 108.768C690.19 109.259 690.303 109.712 690.528 110.13C690.759 110.548 691.072 110.884 691.468 111.14C691.869 111.391 692.32 111.517 692.823 111.517Z" fill="black"/>
<path d="M693.226 216.909V230H691.244V218.891H691.168L688.036 220.936V219.044L691.302 216.909H693.226ZM701.325 230.179C700.447 230.179 699.663 230.028 698.972 229.725C698.286 229.423 697.743 229.003 697.342 228.466C696.946 227.925 696.733 227.298 696.703 226.587H698.71C698.736 226.974 698.866 227.311 699.1 227.597C699.339 227.878 699.65 228.095 700.033 228.249C700.417 228.402 700.843 228.479 701.312 228.479C701.827 228.479 702.283 228.389 702.68 228.21C703.08 228.031 703.393 227.782 703.619 227.462C703.845 227.138 703.958 226.766 703.958 226.344C703.958 225.905 703.845 225.519 703.619 225.187C703.398 224.85 703.072 224.586 702.641 224.394C702.215 224.202 701.7 224.107 701.094 224.107H699.989V222.496H701.094C701.58 222.496 702.006 222.408 702.373 222.234C702.744 222.059 703.033 221.816 703.242 221.505C703.451 221.19 703.555 220.821 703.555 220.399C703.555 219.994 703.464 219.643 703.281 219.344C703.102 219.042 702.846 218.805 702.513 218.635C702.185 218.464 701.798 218.379 701.35 218.379C700.924 218.379 700.526 218.458 700.155 218.616C699.788 218.769 699.49 218.991 699.26 219.281C699.03 219.566 698.906 219.909 698.889 220.31H696.978C696.999 219.602 697.208 218.98 697.604 218.443C698.005 217.906 698.533 217.487 699.19 217.184C699.846 216.881 700.575 216.73 701.376 216.73C702.215 216.73 702.94 216.894 703.549 217.222C704.163 217.546 704.636 217.979 704.968 218.52C705.305 219.061 705.471 219.653 705.467 220.297C705.471 221.03 705.266 221.652 704.853 222.163C704.444 222.675 703.898 223.018 703.217 223.192V223.295C704.086 223.427 704.759 223.772 705.237 224.33C705.718 224.888 705.957 225.581 705.952 226.408C705.957 227.128 705.756 227.773 705.352 228.344C704.951 228.915 704.403 229.365 703.709 229.693C703.014 230.017 702.219 230.179 701.325 230.179Z" fill="black"/>
<path d="M687.259 342V340.568L691.689 335.979C692.162 335.48 692.552 335.043 692.859 334.668C693.17 334.289 693.402 333.929 693.555 333.588C693.709 333.247 693.786 332.885 693.786 332.501C693.786 332.067 693.683 331.692 693.479 331.376C693.274 331.057 692.995 330.812 692.641 330.641C692.288 330.467 691.889 330.379 691.446 330.379C690.977 330.379 690.568 330.475 690.219 330.667C689.869 330.859 689.601 331.129 689.413 331.479C689.226 331.828 689.132 332.237 689.132 332.706H687.246C687.246 331.909 687.43 331.212 687.796 330.616C688.163 330.019 688.665 329.557 689.305 329.229C689.944 328.896 690.67 328.73 691.484 328.73C692.307 328.73 693.031 328.894 693.658 329.222C694.288 329.546 694.781 329.989 695.134 330.552C695.488 331.11 695.665 331.741 695.665 332.444C695.665 332.93 695.573 333.405 695.39 333.869C695.211 334.334 694.898 334.852 694.45 335.423C694.003 335.989 693.381 336.678 692.584 337.487L689.982 340.21V340.306H695.876V342H687.259ZM702.856 342.217C701.846 342.213 700.983 341.947 700.267 341.418C699.551 340.89 699.004 340.121 698.624 339.111C698.245 338.101 698.055 336.884 698.055 335.461C698.055 334.042 698.245 332.83 698.624 331.824C699.008 330.818 699.558 330.051 700.273 329.523C700.994 328.994 701.854 328.73 702.856 328.73C703.857 328.73 704.716 328.996 705.432 329.529C706.148 330.058 706.695 330.825 707.075 331.83C707.458 332.832 707.65 334.042 707.65 335.461C707.65 336.888 707.46 338.107 707.081 339.117C706.702 340.123 706.154 340.892 705.438 341.425C704.722 341.953 703.862 342.217 702.856 342.217ZM702.856 340.511C703.742 340.511 704.435 340.078 704.933 339.213C705.436 338.348 705.688 337.097 705.688 335.461C705.688 334.374 705.572 333.456 705.342 332.706C705.116 331.952 704.79 331.381 704.364 330.993C703.942 330.601 703.44 330.405 702.856 330.405C701.974 330.405 701.281 330.839 700.778 331.709C700.276 332.578 700.022 333.829 700.018 335.461C700.018 336.552 700.131 337.474 700.357 338.229C700.587 338.979 700.913 339.548 701.335 339.935C701.756 340.319 702.263 340.511 702.856 340.511Z" fill="black"/>
<path d="M687.259 457V455.568L691.689 450.979C692.162 450.48 692.552 450.043 692.859 449.668C693.17 449.289 693.402 448.929 693.555 448.588C693.709 448.247 693.786 447.885 693.786 447.501C693.786 447.067 693.683 446.692 693.479 446.376C693.274 446.057 692.995 445.812 692.641 445.641C692.288 445.467 691.889 445.379 691.446 445.379C690.977 445.379 690.568 445.475 690.219 445.667C689.869 445.859 689.601 446.129 689.413 446.479C689.226 446.828 689.132 447.237 689.132 447.706H687.246C687.246 446.909 687.43 446.212 687.796 445.616C688.163 445.019 688.665 444.557 689.305 444.229C689.944 443.896 690.67 443.73 691.484 443.73C692.307 443.73 693.031 443.894 693.658 444.222C694.288 444.546 694.781 444.989 695.134 445.552C695.488 446.11 695.665 446.741 695.665 447.444C695.665 447.93 695.573 448.405 695.39 448.869C695.211 449.334 694.898 449.852 694.45 450.423C694.003 450.989 693.381 451.678 692.584 452.487L689.982 455.21V455.306H695.876V457H687.259ZM698.739 457L704.454 445.699V445.603H697.844V443.909H706.499V445.661L700.804 457H698.739Z" fill="black"/>
</svg>
