<svg width="52" height="49" viewBox="0 0 52 49" fill="none" xmlns="http://www.w3.org/2000/svg">
<path d="M3.01262 29.686L0.0582352 13.3528C-0.0363693 12.8298 -0.0155067 12.2922 0.119347 11.7781C0.2542 11.2641 0.499748 10.7861 0.838638 10.3779C1.17753 9.96974 1.60148 9.6414 2.08052 9.41608C2.55957 9.19077 3.08201 9.07398 3.6109 9.07398H41.4659L42.5681 2.98035C42.7191 2.14388 43.1574 1.38726 43.8068 0.842554C44.4561 0.297844 45.2751 -0.000357379 46.1208 3.21428e-07H50.1946C50.6734 3.21428e-07 51.1326 0.191201 51.4712 0.531542C51.8098 0.871882 52 1.33348 52 1.8148C52 2.29611 51.8098 2.75771 51.4712 3.09805C51.1326 3.43839 50.6734 3.62959 50.1946 3.62959H46.121L40.0947 36.9452C40.0408 37.2399 39.9508 37.5268 39.8268 37.7993C40.7282 38.5649 41.3983 39.5689 41.761 40.6977C42.1238 41.8265 42.1648 43.0349 41.8793 44.1859C41.5939 45.3369 40.9934 46.3845 40.1459 47.21C39.2985 48.0355 38.2379 48.6059 37.0844 48.8566C35.931 49.1073 34.7307 49.0282 33.6197 48.6283C32.5087 48.2284 31.5313 47.5237 30.7983 46.594C30.0653 45.6643 29.6061 44.5469 29.4725 43.3683C29.339 42.1897 29.5366 40.997 30.0429 39.9255H14.3774C14.9641 41.169 15.1331 42.5703 14.859 43.9186C14.5849 45.2669 13.8825 46.4893 12.8576 47.4017C11.8326 48.3141 10.5406 48.8671 9.1759 48.9776C7.81123 49.0881 6.44777 48.7501 5.29074 48.0144C4.13372 47.2787 3.24573 46.1851 2.76043 44.8983C2.27514 43.6115 2.2188 42.201 2.59988 40.8792C2.98098 39.5574 3.77887 38.3958 4.87349 37.5692C5.96811 36.7426 7.30022 36.2958 8.66931 36.2959H36.542L37.1987 32.6663H6.56529C5.71955 32.6667 4.90055 32.3685 4.25125 31.8238C3.60194 31.2791 3.16356 30.5225 3.01262 29.686ZM33.0428 42.6477C33.0428 43.1861 33.2017 43.7124 33.4992 44.1601C33.7968 44.6078 34.2198 44.9567 34.7146 45.1627C35.2095 45.3687 35.754 45.4226 36.2793 45.3176C36.8047 45.2126 37.2872 44.9533 37.666 44.5726C38.0447 44.1919 38.3026 43.7068 38.4071 43.1788C38.5116 42.6507 38.458 42.1034 38.253 41.606C38.048 41.1086 37.7009 40.6834 37.2556 40.3843C36.8102 40.0852 36.2866 39.9255 35.751 39.9255C35.033 39.9263 34.3446 40.2134 33.8369 40.7237C33.3292 41.234 33.0436 41.926 33.0428 42.6477ZM5.96114 42.6477C5.96114 43.1861 6.11997 43.7124 6.41755 44.1601C6.71513 44.6078 7.13809 44.9567 7.63294 45.1627C8.12779 45.3687 8.67231 45.4226 9.19765 45.3176C9.72298 45.2126 10.2055 44.9533 10.5843 44.5726C10.963 44.1919 11.2209 43.7068 11.3254 43.1788C11.4299 42.6507 11.3763 42.1034 11.1713 41.606C10.9664 41.1086 10.6192 40.6834 10.1739 40.3843C9.72853 40.0852 9.20493 39.9255 8.66931 39.9255C7.9513 39.9263 7.26292 40.2134 6.7552 40.7237C6.24749 41.234 5.96192 41.926 5.96114 42.6477ZM40.8094 12.7036H3.6109L6.56506 29.0367H37.8552L40.8094 12.7036Z" fill="#FCF4F5"/>
</svg>
