<svg width="20" height="20" viewBox="0 0 20 20" fill="none" xmlns="http://www.w3.org/2000/svg">
<path d="M10 0C8.02219 0 6.08879 0.58649 4.4443 1.6853C2.79981 2.78412 1.51809 4.3459 0.761209 6.17317C0.00433286 8.00043 -0.193701 10.0111 0.192152 11.9509C0.578004 13.8907 1.53041 15.6725 2.92894 17.0711C4.32746 18.4696 6.10929 19.422 8.0491 19.8079C9.98891 20.1937 11.9996 19.9957 13.8268 19.2388C15.6541 18.4819 17.2159 17.2002 18.3147 15.5557C19.4135 13.9112 20 11.9778 20 10C20 7.34784 18.9464 4.8043 17.0711 2.92893C15.1957 1.05357 12.6522 0 10 0ZM10 18.3333C8.35183 18.3333 6.74066 17.8446 5.37025 16.9289C3.99984 16.0132 2.93174 14.7117 2.30101 13.189C1.67028 11.6663 1.50525 9.99076 1.82679 8.37425C2.14834 6.75774 2.94201 5.27288 4.10745 4.10744C5.27289 2.94201 6.75774 2.14833 8.37425 1.82679C9.99076 1.50525 11.6663 1.67027 13.189 2.301C14.7118 2.93173 16.0132 3.99984 16.9289 5.37025C17.8446 6.74066 18.3333 8.35182 18.3333 10C18.3333 11.0943 18.1178 12.178 17.699 13.189C17.2802 14.2001 16.6664 15.1187 15.8926 15.8926C15.1187 16.6664 14.2001 17.2802 13.189 17.699C12.178 18.1178 11.0944 18.3333 10 18.3333Z" fill="#FCF4F5"/>
<path d="M8.61668 14.7834L4.45002 10.6167C4.31349 10.4573 4.24215 10.2522 4.25026 10.0425C4.25836 9.83278 4.3453 9.63383 4.49371 9.48542C4.64212 9.33701 4.84107 9.25006 5.0508 9.24196C5.26053 9.23386 5.4656 9.3052 5.62501 9.44172L8.61668 12.4334L14.2667 6.78339C14.4261 6.64687 14.6312 6.57553 14.8409 6.58363C15.0506 6.59173 15.2496 6.67867 15.398 6.82709C15.5464 6.9755 15.6333 7.17445 15.6414 7.38418C15.6495 7.59391 15.5782 7.79897 15.4417 7.95839L8.61668 14.7834Z" fill="#FCF4F5"/>
</svg>
