<svg width="75" height="21" viewBox="0 0 75 21" fill="none" xmlns="http://www.w3.org/2000/svg">
<path fill-rule="evenodd" clip-rule="evenodd" d="M0.0544228 20.5124C-0.0624746 20.133 0.00465233 19.9482 0.430941 19.9108C1.70374 19.7987 2.05349 19.4434 2.06761 18.1806C2.095 15.7249 2.09072 13.269 2.09124 10.8132C2.09187 8.04599 2.08403 5.27872 2.07733 2.51156C2.07692 2.33919 2.0651 2.16537 2.04053 1.99487C1.89561 0.985965 1.59103 0.69353 0.562476 0.601897C0.200178 0.569519 -0.128765 0.542535 0.0503449 0.00165949C3.38474 0.00165949 6.73431 0.00165949 10.1117 0.00165949C10.1117 0.165935 10.1117 0.314126 10.1117 0.512544C9.79434 0.561422 9.47 0.593284 9.15444 0.663643C8.51694 0.805711 8.23285 1.1133 8.14481 1.75587C8.09567 2.11494 8.05646 2.47866 8.0551 2.84032C8.04705 5.01949 8.05071 7.19877 8.05259 9.37804C8.0527 9.52924 8.07047 9.68023 8.08197 9.86101C10.2657 9.86101 12.4178 9.86101 14.6222 9.86101C14.6222 9.57625 14.6222 9.30405 14.6222 9.03195C14.6222 6.95645 14.6223 4.88106 14.6222 2.80556C14.6222 2.66722 14.6248 2.52869 14.6193 2.39056C14.5666 1.05674 14.2635 0.732134 12.9353 0.580311C12.8329 0.568584 12.7319 0.546273 12.5838 0.520848C12.5714 0.354185 12.5595 0.19354 12.5452 0C15.923 0 19.2592 0 22.6516 0C22.6632 0.146738 22.676 0.306552 22.6924 0.512649C22.3869 0.554159 22.1151 0.582697 21.8464 0.629395C21.094 0.760256 20.7896 1.06639 20.6905 1.81918C20.6409 2.19567 20.6055 2.57704 20.6048 2.95624C20.5978 7.7989 20.5972 12.6417 20.5996 17.4844C20.5997 17.7775 20.631 18.0714 20.6603 18.3637C20.7744 19.504 21.067 19.8121 22.2107 19.9067C22.6291 19.9414 22.782 20.0843 22.6363 20.5136C19.3067 20.5136 15.9695 20.5136 12.6161 20.5136C12.4344 20.0845 12.5959 19.9407 13.0374 19.9078C14.1327 19.8259 14.5306 19.5614 14.5526 18.584C14.613 15.9094 14.5734 13.2323 14.5734 10.5189C12.4231 10.5189 10.2732 10.5189 8.13833 10.5189C8.10404 10.5732 8.07078 10.6012 8.07089 10.6293C8.07413 13.136 8.07978 15.6427 8.08647 18.1493C8.08668 18.2354 8.09692 18.3218 8.10675 18.4075C8.23233 19.5048 8.53639 19.801 9.65151 19.9135C10.1467 19.9635 10.1467 19.9635 10.1046 20.5124C6.75595 20.5124 3.40493 20.5124 0.0544228 20.5124Z" fill="#EDAFBA"/>
<path fill-rule="evenodd" clip-rule="evenodd" d="M73.5218 2.65363C73.7529 2.65363 73.9404 2.65363 74.099 2.65363C74.099 3.67385 74.1031 4.66801 74.098 5.66207C74.0927 6.6991 74.0898 7.73643 74.0551 8.77263C74.0502 8.91853 73.8991 9.14009 73.767 9.18472C73.4897 9.27832 73.3363 9.12276 73.2885 8.8158C73.059 7.34074 72.5761 5.96987 71.5596 4.82751C70.2412 3.34612 68.0061 2.75834 66.1176 3.40133C64.6295 3.90806 64.2176 5.21906 65.2454 6.41257C65.7581 7.00783 66.387 7.53148 67.0411 7.97439C68.7085 9.10346 70.4315 10.1516 72.109 11.2663C73.1198 11.9381 73.9872 12.7896 74.4973 13.8937C75.5862 16.2508 75.0229 19.0476 71.6675 20.2206C68.5624 21.3062 65.4561 21.2938 62.4038 19.9556C62.1015 19.8233 61.7925 19.7037 61.4803 19.5967C60.8628 19.3851 60.6951 19.4812 60.5166 20.1275C60.4662 20.3099 60.4242 20.4947 60.3691 20.7161C60.1733 20.7161 59.9723 20.7161 59.7686 20.7161C59.7686 18.2344 59.7686 15.7413 59.7686 13.2139C60.0422 13.2139 60.2421 13.2139 60.46 13.2139C60.585 13.9186 60.6712 14.6374 60.8439 15.3348C61.2928 17.146 62.1567 18.6964 63.9029 19.5754C65.2014 20.2291 66.5863 20.4258 68.0091 20.0183C69.7768 19.5118 70.3247 17.7247 69.0796 16.3696C68.5133 15.7533 67.8042 15.2493 67.1056 14.7726C65.8153 13.8924 64.4379 13.1324 63.1872 12.2021C62.2923 11.5365 61.4377 10.7579 60.7538 9.88416C59.0672 7.72989 59.7366 4.88189 62.1399 3.55969C63.3523 2.89252 64.6732 2.60849 66.0351 2.49319C68.2323 2.30733 70.3415 2.56345 72.2764 3.72781C72.923 4.11696 73.2125 3.96244 73.3897 3.23695C73.4348 3.05317 73.4733 2.86814 73.5218 2.65363Z" fill="#EDAFBA"/>
<path fill-rule="evenodd" clip-rule="evenodd" d="M40.2415 2.90601C43.4889 2.90601 46.7377 2.90601 49.9935 2.90601C50.1454 3.31613 50.0143 3.4719 49.5885 3.50667C48.383 3.60525 47.9923 3.96597 47.9929 5.16592C47.9944 8.64031 48.0289 12.1152 48.0951 15.5891C48.1067 16.1981 48.2613 16.8295 48.4749 17.4049C49.0533 18.9634 50.3114 19.7107 52.0893 19.6408C54.1484 19.5599 55.2594 18.7968 55.8751 16.8446C56.1733 15.8986 56.3787 14.886 56.3981 13.8991C56.4485 11.325 56.4123 8.7473 56.3343 6.17327C56.282 4.44884 55.6679 3.82318 53.9249 3.53416C53.5019 3.46401 53.3788 3.31447 53.5144 2.90799C55.4859 2.90799 57.4611 2.90799 59.44 2.90799C59.548 3.25843 59.5194 3.46671 59.1014 3.55212C57.9665 3.78385 57.3533 4.51619 57.2774 5.65014C57.1979 6.83867 57.16 8.03053 57.1255 9.22155C57.0656 11.2768 57.0546 13.3341 56.9535 15.3872C56.9207 16.0478 56.7176 16.7136 56.5078 17.3496C55.8492 19.3481 54.328 20.4019 52.3443 20.7785C50.1301 21.1991 47.9262 21.0387 45.8452 20.1152C43.8035 19.2093 42.5859 17.6208 42.4455 15.3914C42.3077 13.203 42.3254 11.0047 42.2837 8.8103C42.2602 7.58316 42.2849 6.35436 42.2334 5.12846C42.183 3.9283 41.8535 3.60722 40.6578 3.5075C40.2375 3.47263 40.0856 3.32578 40.2415 2.90601Z" fill="#EDAFBA"/>
<path fill-rule="evenodd" clip-rule="evenodd" d="M42.9996 20.5124C39.8398 20.5124 36.6945 20.5124 33.5219 20.5124C33.3828 20.1504 33.4488 19.959 33.8943 19.9048C35.1803 19.7481 35.5423 19.1737 35.0672 17.9866C34.6051 16.8317 34.072 15.7048 33.5872 14.5586C33.4735 14.2898 33.3105 14.2118 33.0303 14.2139C31.48 14.225 29.9295 14.2102 28.3795 14.2327C28.2046 14.2353 27.9244 14.3807 27.8765 14.5213C27.5712 15.4174 27.2164 16.3147 27.0686 17.2416C26.791 18.9839 27.4614 19.7541 29.2395 19.9091C29.6334 19.9436 29.842 20.0484 29.6727 20.5115C27.6734 20.5115 25.6652 20.5115 23.6522 20.5115C23.5346 20.1686 23.6347 20.015 23.9498 19.8155C24.4042 19.5278 24.8946 19.1593 25.137 18.7034C25.9394 17.1938 26.673 15.6452 27.3685 14.0833C28.965 10.4978 30.527 6.8973 32.0907 3.29765C32.2272 2.98363 32.3824 2.81001 32.7445 2.88473C32.879 2.91244 33.0305 2.92925 33.1604 2.89646C34.1124 2.65674 34.4583 3.20083 34.8058 3.96897C36.9094 8.61706 39.0557 13.2463 41.2043 17.8742C41.45 18.4035 41.776 18.9009 42.1089 19.3828C42.2486 19.5848 42.481 19.7709 42.7115 19.854C43.0774 19.9858 43.077 20.2019 42.9996 20.5124ZM33.1785 13.6001C32.352 11.7147 31.5538 9.8938 30.7048 7.95684C29.855 9.91186 29.067 11.7249 28.2519 13.6001C29.9259 13.6001 31.5032 13.6001 33.1785 13.6001Z" fill="#EDAFBA"/>
</svg>
