<svg width="131" height="291" viewBox="0 0 131 291" fill="none" xmlns="http://www.w3.org/2000/svg">
<path d="M56.3111 14.1662H54.3168C54.2401 13.7401 54.0973 13.3651 53.8885 13.0412C53.6797 12.7173 53.424 12.4425 53.1214 12.2166C52.8189 11.9908 52.4801 11.8203 52.1051 11.7053C51.7344 11.5902 51.3402 11.5327 50.9226 11.5327C50.1683 11.5327 49.4929 11.7223 48.8963 12.1016C48.304 12.4808 47.8352 13.0369 47.4901 13.7699C47.1491 14.5028 46.9787 15.3977 46.9787 16.4545C46.9787 17.5199 47.1491 18.419 47.4901 19.152C47.8352 19.8849 48.3061 20.4389 48.9027 20.8139C49.4993 21.1889 50.1705 21.3764 50.9162 21.3764C51.3295 21.3764 51.7216 21.321 52.0923 21.2102C52.4673 21.0952 52.8061 20.9268 53.1087 20.7053C53.4112 20.4837 53.6669 20.2131 53.8757 19.8935C54.0888 19.5696 54.2358 19.1989 54.3168 18.7812L56.3111 18.7876C56.2045 19.4311 55.9979 20.0234 55.6911 20.5646C55.3885 21.1016 54.9986 21.5661 54.5213 21.9581C54.0483 22.3459 53.5071 22.6463 52.8977 22.8594C52.2884 23.0724 51.6236 23.179 50.9034 23.179C49.7699 23.179 48.7599 22.9105 47.8736 22.3736C46.9872 21.8324 46.2884 21.0589 45.777 20.0533C45.2699 19.0476 45.0163 17.848 45.0163 16.4545C45.0163 15.0568 45.272 13.8572 45.7834 12.8558C46.2947 11.8501 46.9936 11.0788 47.88 10.5419C48.7663 10.0007 49.7741 9.73011 50.9034 9.73011C51.598 9.73011 52.2457 9.83026 52.8466 10.0305C53.4517 10.2266 53.995 10.5163 54.4766 10.8999C54.9581 11.2791 55.3565 11.7436 55.6719 12.2933C55.9872 12.8388 56.2003 13.4631 56.3111 14.1662ZM64.7406 18.9283V13.1818H66.6582V23H64.7789V21.2997H64.6767C64.4508 21.8239 64.0886 22.2607 63.59 22.6101C63.0957 22.9553 62.4799 23.1278 61.7427 23.1278C61.112 23.1278 60.5538 22.9893 60.068 22.7124C59.5865 22.4311 59.2072 22.0156 58.9302 21.4659C58.6575 20.9162 58.5211 20.2365 58.5211 19.4268V13.1818H60.4324V19.1967C60.4324 19.8658 60.6177 20.3984 60.9885 20.7947C61.3592 21.1911 61.8407 21.3892 62.4331 21.3892C62.791 21.3892 63.1468 21.2997 63.5005 21.1207C63.8585 20.9418 64.1547 20.6712 64.389 20.3089C64.6277 19.9467 64.7449 19.4865 64.7406 18.9283ZM69.2262 23V13.1818H71.0735V14.7415H71.1758C71.3548 14.2131 71.6701 13.7976 72.1218 13.495C72.5778 13.1882 73.0934 13.0348 73.6687 13.0348C73.788 13.0348 73.9286 13.0391 74.0906 13.0476C74.2567 13.0561 74.3867 13.0668 74.4805 13.0795V14.9077C74.4038 14.8864 74.2674 14.8629 74.0714 14.8374C73.8754 14.8075 73.6793 14.7926 73.4833 14.7926C73.0316 14.7926 72.6289 14.8885 72.2752 15.0803C71.9258 15.2678 71.6488 15.5298 71.4442 15.8665C71.2397 16.1989 71.1374 16.5781 71.1374 17.0043V23H69.2262ZM83.4917 15.5788L81.7594 15.8857C81.687 15.6641 81.5719 15.4531 81.4142 15.2528C81.2608 15.0526 81.052 14.8885 80.7878 14.7607C80.5236 14.6328 80.1934 14.5689 79.7971 14.5689C79.2559 14.5689 78.8042 14.6903 78.4419 14.9332C78.0797 15.1719 77.8986 15.4808 77.8986 15.8601C77.8986 16.1882 78.0201 16.4524 78.263 16.6527C78.5059 16.853 78.8979 17.017 79.4391 17.1449L80.9988 17.5028C81.9022 17.7116 82.5755 18.0334 83.0186 18.468C83.4618 18.9027 83.6834 19.4673 83.6834 20.1619C83.6834 20.75 83.513 21.2741 83.1721 21.7344C82.8354 22.1903 82.3645 22.5483 81.7594 22.8082C81.1586 23.0682 80.4618 23.1982 79.6692 23.1982C78.5698 23.1982 77.6728 22.9638 76.9782 22.495C76.2836 22.022 75.8574 21.3509 75.6998 20.4815L77.5471 20.2003C77.6621 20.6818 77.8986 21.0462 78.2566 21.2933C78.6145 21.5362 79.0811 21.6577 79.6564 21.6577C80.2828 21.6577 80.7836 21.5277 81.1586 21.2678C81.5336 21.0036 81.7211 20.6818 81.7211 20.3026C81.7211 19.9957 81.606 19.7379 81.3759 19.5291C81.15 19.3203 80.8027 19.1626 80.334 19.0561L78.6721 18.6918C77.7559 18.483 77.0783 18.1506 76.6394 17.6946C76.2047 17.2386 75.9874 16.6612 75.9874 15.9624C75.9874 15.3828 76.1493 14.8757 76.4732 14.4411C76.7971 14.0064 77.2445 13.6676 77.8155 13.4247C78.3865 13.1776 79.0407 13.054 79.7779 13.054C80.839 13.054 81.6742 13.2841 82.2836 13.7443C82.8929 14.2003 83.2956 14.8118 83.4917 15.5788ZM89.9205 23.1982C89 23.1982 88.1967 22.9872 87.5107 22.5653C86.8246 22.1435 86.2919 21.5533 85.9126 20.7947C85.5334 20.0362 85.3438 19.1499 85.3438 18.1357C85.3438 17.1172 85.5334 16.2266 85.9126 15.4638C86.2919 14.701 86.8246 14.1087 87.5107 13.6868C88.1967 13.2649 89 13.054 89.9205 13.054C90.8409 13.054 91.6442 13.2649 92.3303 13.6868C93.0163 14.1087 93.549 14.701 93.9283 15.4638C94.3075 16.2266 94.4972 17.1172 94.4972 18.1357C94.4972 19.1499 94.3075 20.0362 93.9283 20.7947C93.549 21.5533 93.0163 22.1435 92.3303 22.5653C91.6442 22.9872 90.8409 23.1982 89.9205 23.1982ZM89.9268 21.5938C90.5234 21.5938 91.0178 21.4361 91.4098 21.1207C91.8018 20.8054 92.0916 20.3857 92.2791 19.8615C92.4709 19.3374 92.5668 18.7599 92.5668 18.1293C92.5668 17.5028 92.4709 16.9276 92.2791 16.4034C92.0916 15.875 91.8018 15.451 91.4098 15.1314C91.0178 14.8118 90.5234 14.652 89.9268 14.652C89.326 14.652 88.8274 14.8118 88.4311 15.1314C88.0391 15.451 87.7472 15.875 87.5554 16.4034C87.3679 16.9276 87.2741 17.5028 87.2741 18.1293C87.2741 18.7599 87.3679 19.3374 87.5554 19.8615C87.7472 20.3857 88.0391 20.8054 88.4311 21.1207C88.8274 21.4361 89.326 21.5938 89.9268 21.5938ZM44.7926 54.6094V52.9091H54.924V54.6094H50.8395V66H48.8707V54.6094H44.7926ZM58.5307 66.2173C57.9086 66.2173 57.3461 66.1023 56.8432 65.8722C56.3404 65.6378 55.9419 65.299 55.6479 64.8558C55.3581 64.4126 55.2132 63.8693 55.2132 63.2259C55.2132 62.6719 55.3198 62.2159 55.5328 61.858C55.7459 61.5 56.0336 61.2166 56.3958 61.0078C56.758 60.799 57.1628 60.6413 57.6103 60.5348C58.0577 60.4283 58.5137 60.3473 58.9782 60.2919C59.5662 60.2237 60.0435 60.1683 60.41 60.1257C60.7765 60.0788 61.0428 60.0043 61.209 59.902C61.3752 59.7997 61.4583 59.6335 61.4583 59.4034V59.3587C61.4583 58.8004 61.3006 58.3679 60.9853 58.0611C60.6742 57.7543 60.2097 57.6009 59.5918 57.6009C58.9483 57.6009 58.4412 57.7436 58.0705 58.0291C57.704 58.3104 57.4505 58.6236 57.3098 58.9688L55.5137 58.5597C55.7267 57.9631 56.0378 57.4815 56.4469 57.1151C56.8603 56.7443 57.3354 56.4759 57.8723 56.3097C58.4093 56.1392 58.9739 56.054 59.5662 56.054C59.9583 56.054 60.3738 56.1009 60.8127 56.1946C61.2559 56.2841 61.6692 56.4503 62.0527 56.6932C62.4405 56.9361 62.758 57.2834 63.0051 57.7351C63.2523 58.1825 63.3759 58.7642 63.3759 59.4801V66H61.5094V64.6577H61.4327C61.3091 64.9048 61.1238 65.1477 60.8766 65.3864C60.6294 65.625 60.312 65.8232 59.9242 65.9808C59.5364 66.1385 59.0719 66.2173 58.5307 66.2173ZM58.9462 64.6832C59.4746 64.6832 59.9263 64.5788 60.3013 64.37C60.6806 64.1612 60.9682 63.8885 61.1642 63.5518C61.3645 63.2109 61.4647 62.8466 61.4647 62.4588V61.1932C61.3965 61.2614 61.2644 61.3253 61.0684 61.3849C60.8766 61.4403 60.6571 61.4893 60.41 61.532C60.1628 61.5703 59.9221 61.6065 59.6877 61.6406C59.4533 61.6705 59.2573 61.696 59.0996 61.7173C58.7289 61.7642 58.3901 61.843 58.0833 61.9538C57.7807 62.0646 57.5378 62.2244 57.3546 62.4332C57.1756 62.6378 57.0861 62.9105 57.0861 63.2514C57.0861 63.7244 57.2608 64.0824 57.6103 64.3253C57.9597 64.5639 58.405 64.6832 58.9462 64.6832ZM67.8327 52.9091V66H65.9215V52.9091H67.8327ZM72.3152 52.9091V66H70.4039V52.9091H72.3152ZM79.1179 66.1982C78.1506 66.1982 77.3175 65.9915 76.6186 65.5781C75.924 65.1605 75.3871 64.5746 75.0078 63.8203C74.6328 63.0618 74.4453 62.1733 74.4453 61.1548C74.4453 60.1491 74.6328 59.2628 75.0078 58.4957C75.3871 57.7287 75.9155 57.13 76.593 56.6996C77.2749 56.2692 78.0717 56.054 78.9837 56.054C79.5376 56.054 80.0746 56.1456 80.5945 56.3288C81.1143 56.5121 81.581 56.7997 81.9943 57.1918C82.4077 57.5838 82.7337 58.093 82.9723 58.7195C83.2109 59.3416 83.3303 60.098 83.3303 60.9886V61.6662H75.5256V60.2344H81.4574C81.4574 59.7315 81.3551 59.2862 81.1506 58.8984C80.946 58.5064 80.6584 58.1974 80.2876 57.9716C79.9212 57.7457 79.4908 57.6328 78.9964 57.6328C78.4595 57.6328 77.9908 57.7649 77.5902 58.0291C77.1939 58.2891 76.8871 58.63 76.6697 59.0518C76.4567 59.4695 76.3501 59.9233 76.3501 60.4134V61.532C76.3501 62.1882 76.4652 62.7464 76.6953 63.2067C76.9297 63.6669 77.2557 64.0185 77.6733 64.2614C78.0909 64.5 78.5788 64.6193 79.1371 64.6193C79.4993 64.6193 79.8295 64.5682 80.1278 64.4659C80.4261 64.3594 80.6839 64.2017 80.9013 63.9929C81.1186 63.7841 81.2848 63.5263 81.3999 63.2195L83.2088 63.5455C83.0639 64.0781 82.804 64.5447 82.429 64.9453C82.0582 65.3416 81.5916 65.6506 81.0291 65.8722C80.4709 66.0895 79.8338 66.1982 79.1179 66.1982ZM85.4508 66V56.1818H87.2981V57.7415H87.4004C87.5794 57.2131 87.8947 56.7976 88.3464 56.495C88.8024 56.1882 89.318 56.0348 89.8933 56.0348C90.0126 56.0348 90.1532 56.0391 90.3152 56.0476C90.4814 56.0561 90.6113 56.0668 90.7051 56.0795V57.9077C90.6284 57.8864 90.492 57.8629 90.296 57.8374C90.1 57.8075 89.9039 57.7926 89.7079 57.7926C89.2562 57.7926 88.8535 57.8885 88.4998 58.0803C88.1504 58.2678 87.8734 58.5298 87.6689 58.8665C87.4643 59.1989 87.362 59.5781 87.362 60.0043V66H85.4508ZM48.0014 109L44.3707 95.9091H46.4482L48.9986 106.047H49.12L51.7727 95.9091H53.831L56.4837 106.053H56.6051L59.1491 95.9091H61.233L57.5959 109H55.608L52.853 99.1946H52.7507L49.9957 109H48.0014ZM66.0494 109.198C65.1289 109.198 64.3256 108.987 63.6396 108.565C62.9535 108.143 62.4208 107.553 62.0415 106.795C61.6623 106.036 61.4727 105.15 61.4727 104.136C61.4727 103.117 61.6623 102.227 62.0415 101.464C62.4208 100.701 62.9535 100.109 63.6396 99.6868C64.3256 99.2649 65.1289 99.054 66.0494 99.054C66.9698 99.054 67.7731 99.2649 68.4592 99.6868C69.1452 100.109 69.6779 100.701 70.0572 101.464C70.4364 102.227 70.6261 103.117 70.6261 104.136C70.6261 105.15 70.4364 106.036 70.0572 106.795C69.6779 107.553 69.1452 108.143 68.4592 108.565C67.7731 108.987 66.9698 109.198 66.0494 109.198ZM66.0558 107.594C66.6523 107.594 67.1467 107.436 67.5387 107.121C67.9308 106.805 68.2205 106.386 68.408 105.862C68.5998 105.337 68.6957 104.76 68.6957 104.129C68.6957 103.503 68.5998 102.928 68.408 102.403C68.2205 101.875 67.9308 101.451 67.5387 101.131C67.1467 100.812 66.6523 100.652 66.0558 100.652C65.4549 100.652 64.9563 100.812 64.56 101.131C64.168 101.451 63.8761 101.875 63.6843 102.403C63.4968 102.928 63.4031 103.503 63.4031 104.129C63.4031 104.76 63.4968 105.337 63.6843 105.862C63.8761 106.386 64.168 106.805 64.56 107.121C64.9563 107.436 65.4549 107.594 66.0558 107.594ZM72.7594 109V99.1818H74.6067V100.741H74.709C74.888 100.213 75.2033 99.7976 75.655 99.495C76.111 99.1882 76.6266 99.0348 77.2019 99.0348C77.3212 99.0348 77.4618 99.0391 77.6238 99.0476C77.79 99.0561 77.9199 99.0668 78.0137 99.0795V100.908C77.937 100.886 77.8006 100.863 77.6046 100.837C77.4086 100.808 77.2125 100.793 77.0165 100.793C76.5648 100.793 76.1621 100.888 75.8084 101.08C75.459 101.268 75.182 101.53 74.9775 101.866C74.7729 102.199 74.6706 102.578 74.6706 103.004V109H72.7594ZM81.4254 105.67L81.4126 103.337H81.745L85.657 99.1818H87.9453L83.4837 103.912H83.1832L81.4254 105.67ZM79.6676 109V95.9091H81.5788V109H79.6676ZM85.8679 109L82.3523 104.334L83.669 102.998L88.2138 109H85.8679ZM97.0444 101.579L95.3121 101.886C95.2397 101.664 95.1246 101.453 94.967 101.253C94.8136 101.053 94.6048 100.888 94.3406 100.761C94.0763 100.633 93.7461 100.569 93.3498 100.569C92.8086 100.569 92.3569 100.69 91.9947 100.933C91.6325 101.172 91.4513 101.481 91.4513 101.86C91.4513 102.188 91.5728 102.452 91.8157 102.653C92.0586 102.853 92.4506 103.017 92.9918 103.145L94.5515 103.503C95.4549 103.712 96.1282 104.033 96.5714 104.468C97.0146 104.903 97.2362 105.467 97.2362 106.162C97.2362 106.75 97.0657 107.274 96.7248 107.734C96.3881 108.19 95.9173 108.548 95.3121 108.808C94.7113 109.068 94.0146 109.198 93.2219 109.198C92.1225 109.198 91.2255 108.964 90.5309 108.495C89.8363 108.022 89.4102 107.351 89.2525 106.482L91.0998 106.2C91.2148 106.682 91.4513 107.046 91.8093 107.293C92.1673 107.536 92.6339 107.658 93.2092 107.658C93.8356 107.658 94.3363 107.528 94.7113 107.268C95.0863 107.004 95.2738 106.682 95.2738 106.303C95.2738 105.996 95.1587 105.738 94.9286 105.529C94.7028 105.32 94.3555 105.163 93.8867 105.056L92.2248 104.692C91.3086 104.483 90.631 104.151 90.1921 103.695C89.7575 103.239 89.5401 102.661 89.5401 101.962C89.5401 101.383 89.7021 100.876 90.0259 100.441C90.3498 100.006 90.7972 99.6676 91.3683 99.4247C91.9393 99.1776 92.5934 99.054 93.3306 99.054C94.3917 99.054 95.2269 99.2841 95.8363 99.7443C96.4457 100.2 96.8484 100.812 97.0444 101.579ZM101.249 103.17V109H99.3375V95.9091H101.223V100.78H101.345C101.575 100.251 101.926 99.8317 102.399 99.5206C102.872 99.2095 103.49 99.054 104.253 99.054C104.926 99.054 105.514 99.1925 106.017 99.4695C106.524 99.7464 106.916 100.16 107.193 100.71C107.475 101.255 107.615 101.937 107.615 102.755V109H105.704V102.985C105.704 102.265 105.519 101.707 105.148 101.31C104.777 100.91 104.262 100.71 103.601 100.71C103.149 100.71 102.744 100.805 102.387 100.997C102.033 101.189 101.754 101.47 101.549 101.841C101.349 102.207 101.249 102.651 101.249 103.17ZM114.301 109.198C113.381 109.198 112.578 108.987 111.892 108.565C111.205 108.143 110.673 107.553 110.294 106.795C109.914 106.036 109.725 105.15 109.725 104.136C109.725 103.117 109.914 102.227 110.294 101.464C110.673 100.701 111.205 100.109 111.892 99.6868C112.578 99.2649 113.381 99.054 114.301 99.054C115.222 99.054 116.025 99.2649 116.711 99.6868C117.397 100.109 117.93 100.701 118.309 101.464C118.688 102.227 118.878 103.117 118.878 104.136C118.878 105.15 118.688 106.036 118.309 106.795C117.93 107.553 117.397 108.143 116.711 108.565C116.025 108.987 115.222 109.198 114.301 109.198ZM114.308 107.594C114.904 107.594 115.399 107.436 115.791 107.121C116.183 106.805 116.472 106.386 116.66 105.862C116.852 105.337 116.948 104.76 116.948 104.129C116.948 103.503 116.852 102.928 116.66 102.403C116.472 101.875 116.183 101.451 115.791 101.131C115.399 100.812 114.904 100.652 114.308 100.652C113.707 100.652 113.208 100.812 112.812 101.131C112.42 101.451 112.128 101.875 111.936 102.403C111.749 102.928 111.655 103.503 111.655 104.129C111.655 104.76 111.749 105.337 111.936 105.862C112.128 106.386 112.42 106.805 112.812 107.121C113.208 107.436 113.707 107.594 114.308 107.594ZM121.011 112.682V99.1818H122.878V100.773H123.038C123.148 100.569 123.308 100.332 123.517 100.064C123.726 99.7955 124.016 99.5611 124.386 99.3608C124.757 99.1562 125.247 99.054 125.857 99.054C126.649 99.054 127.357 99.2543 127.979 99.6548C128.601 100.055 129.089 100.633 129.442 101.387C129.8 102.141 129.979 103.049 129.979 104.11C129.979 105.171 129.803 106.081 129.449 106.839C129.095 107.594 128.609 108.175 127.991 108.585C127.374 108.989 126.668 109.192 125.876 109.192C125.279 109.192 124.791 109.092 124.412 108.891C124.037 108.691 123.743 108.457 123.53 108.188C123.317 107.92 123.153 107.681 123.038 107.472H122.923V112.682H121.011ZM122.884 104.091C122.884 104.781 122.984 105.386 123.185 105.906C123.385 106.426 123.675 106.833 124.054 107.127C124.433 107.417 124.898 107.562 125.447 107.562C126.018 107.562 126.496 107.411 126.879 107.108C127.263 106.801 127.553 106.386 127.749 105.862C127.949 105.337 128.049 104.747 128.049 104.091C128.049 103.443 127.951 102.862 127.755 102.346C127.563 101.83 127.273 101.423 126.886 101.125C126.502 100.827 126.023 100.678 125.447 100.678C124.893 100.678 124.425 100.82 124.041 101.106C123.662 101.391 123.374 101.79 123.178 102.301C122.982 102.812 122.884 103.409 122.884 104.091ZM45.4382 152V138.909H50.1044C51.1186 138.909 51.9602 139.084 52.6293 139.433C53.3026 139.783 53.8054 140.266 54.1378 140.884C54.4702 141.498 54.6364 142.207 54.6364 143.013C54.6364 143.814 54.468 144.519 54.1314 145.129C53.799 145.734 53.2962 146.205 52.6229 146.541C51.9538 146.878 51.1122 147.046 50.098 147.046H46.5632V145.346H49.919C50.5582 145.346 51.0781 145.254 51.4787 145.071C51.8835 144.888 52.1797 144.621 52.3672 144.272C52.5547 143.923 52.6484 143.503 52.6484 143.013C52.6484 142.518 52.5526 142.09 52.3608 141.728C52.1733 141.366 51.8771 141.089 51.4723 140.897C51.0717 140.701 50.5455 140.603 49.8935 140.603H47.4134V152H45.4382ZM51.9006 146.094L55.1349 152H52.8849L49.7145 146.094H51.9006ZM60.9949 152.198C60.0275 152.198 59.1944 151.991 58.4956 151.578C57.801 151.161 57.264 150.575 56.8848 149.82C56.5098 149.062 56.3223 148.173 56.3223 147.155C56.3223 146.149 56.5098 145.263 56.8848 144.496C57.264 143.729 57.7924 143.13 58.47 142.7C59.1518 142.269 59.9487 142.054 60.8606 142.054C61.4146 142.054 61.9515 142.146 62.4714 142.329C62.9913 142.512 63.4579 142.8 63.8713 143.192C64.2846 143.584 64.6106 144.093 64.8493 144.719C65.0879 145.342 65.2072 146.098 65.2072 146.989V147.666H57.4025V146.234H63.3343C63.3343 145.732 63.2321 145.286 63.0275 144.898C62.823 144.506 62.5353 144.197 62.1646 143.972C61.7981 143.746 61.3677 143.633 60.8734 143.633C60.3365 143.633 59.8677 143.765 59.4672 144.029C59.0708 144.289 58.764 144.63 58.5467 145.052C58.3336 145.469 58.2271 145.923 58.2271 146.413V147.532C58.2271 148.188 58.3422 148.746 58.5723 149.207C58.8066 149.667 59.1326 150.018 59.5502 150.261C59.9679 150.5 60.4558 150.619 61.014 150.619C61.3762 150.619 61.7065 150.568 62.0048 150.466C62.3031 150.359 62.5609 150.202 62.7782 149.993C62.9956 149.784 63.1618 149.526 63.2768 149.219L65.0858 149.545C64.9409 150.078 64.6809 150.545 64.3059 150.945C63.9352 151.342 63.4686 151.651 62.9061 151.872C62.3478 152.089 61.7108 152.198 60.9949 152.198ZM71.4634 152.198C70.5131 152.198 69.695 151.983 69.0089 151.553C68.3271 151.118 67.8029 150.519 67.4364 149.756C67.07 148.994 66.8867 148.12 66.8867 147.136C66.8867 146.138 67.0742 145.259 67.4492 144.496C67.8242 143.729 68.3526 143.13 69.0344 142.7C69.7163 142.269 70.5195 142.054 71.4442 142.054C72.19 142.054 72.8548 142.192 73.4386 142.469C74.0224 142.742 74.4933 143.126 74.8512 143.62C75.2134 144.114 75.4286 144.692 75.4968 145.352H73.6367C73.5344 144.892 73.3001 144.496 72.9336 144.163C72.5714 143.831 72.0856 143.665 71.4762 143.665C70.9435 143.665 70.4769 143.805 70.0763 144.087C69.68 144.364 69.3711 144.76 69.1495 145.276C68.9279 145.787 68.8171 146.392 68.8171 147.091C68.8171 147.807 68.9258 148.425 69.1431 148.945C69.3604 149.464 69.6673 149.867 70.0636 150.153C70.4641 150.438 70.935 150.581 71.4762 150.581C71.8384 150.581 72.1665 150.515 72.4606 150.383C72.7589 150.246 73.0082 150.053 73.2085 149.801C73.413 149.55 73.5558 149.247 73.6367 148.893H75.4968C75.4286 149.528 75.2219 150.095 74.8768 150.594C74.5316 151.092 74.0692 151.484 73.4897 151.77C72.9144 152.055 72.239 152.198 71.4634 152.198ZM77.5407 152V142.182H79.4519V152H77.5407ZM78.5059 140.667C78.1735 140.667 77.888 140.556 77.6493 140.335C77.415 140.109 77.2978 139.84 77.2978 139.529C77.2978 139.214 77.415 138.945 77.6493 138.724C77.888 138.498 78.1735 138.385 78.5059 138.385C78.8382 138.385 79.1216 138.498 79.356 138.724C79.5946 138.945 79.714 139.214 79.714 139.529C79.714 139.84 79.5946 140.109 79.356 140.335C79.1216 140.556 78.8382 140.667 78.5059 140.667ZM86.6062 142.182V143.716H81.2433V142.182H86.6062ZM82.6815 139.83H84.5927V149.117C84.5927 149.488 84.6481 149.767 84.7589 149.955C84.8697 150.138 85.0124 150.263 85.1871 150.332C85.3661 150.396 85.56 150.428 85.7688 150.428C85.9222 150.428 86.0565 150.417 86.1715 150.396C86.2866 150.374 86.3761 150.357 86.44 150.344L86.7852 151.923C86.6744 151.966 86.5167 152.009 86.3121 152.051C86.1076 152.098 85.8519 152.124 85.5451 152.128C85.0423 152.136 84.5735 152.047 84.1388 151.859C83.7042 151.672 83.3526 151.382 83.0842 150.99C82.8157 150.598 82.6815 150.106 82.6815 149.513V139.83ZM91.5776 152.217C90.9554 152.217 90.3929 152.102 89.8901 151.872C89.3873 151.638 88.9888 151.299 88.6948 150.856C88.405 150.413 88.2601 149.869 88.2601 149.226C88.2601 148.672 88.3667 148.216 88.5797 147.858C88.7928 147.5 89.0804 147.217 89.4426 147.008C89.8049 146.799 90.2097 146.641 90.6571 146.535C91.1046 146.428 91.5605 146.347 92.025 146.292C92.6131 146.224 93.0904 146.168 93.4569 146.126C93.8233 146.079 94.0897 146.004 94.2559 145.902C94.4221 145.8 94.5051 145.634 94.5051 145.403V145.359C94.5051 144.8 94.3475 144.368 94.0321 144.061C93.7211 143.754 93.2566 143.601 92.6387 143.601C91.9952 143.601 91.4881 143.744 91.1174 144.029C90.7509 144.31 90.4973 144.624 90.3567 144.969L88.5605 144.56C88.7736 143.963 89.0847 143.482 89.4938 143.115C89.9071 142.744 90.3823 142.476 90.9192 142.31C91.4561 142.139 92.0208 142.054 92.6131 142.054C93.0051 142.054 93.4206 142.101 93.8596 142.195C94.3027 142.284 94.7161 142.45 95.0996 142.693C95.4874 142.936 95.8049 143.283 96.052 143.735C96.2992 144.183 96.4228 144.764 96.4228 145.48V152H94.5563V150.658H94.4796C94.356 150.905 94.1706 151.148 93.9235 151.386C93.6763 151.625 93.3588 151.823 92.9711 151.981C92.5833 152.138 92.1188 152.217 91.5776 152.217ZM91.9931 150.683C92.5215 150.683 92.9732 150.579 93.3482 150.37C93.7275 150.161 94.0151 149.888 94.2111 149.552C94.4114 149.211 94.5115 148.847 94.5115 148.459V147.193C94.4434 147.261 94.3113 147.325 94.1152 147.385C93.9235 147.44 93.704 147.489 93.4569 147.532C93.2097 147.57 92.9689 147.607 92.7346 147.641C92.5002 147.67 92.3042 147.696 92.1465 147.717C91.7757 147.764 91.437 147.843 91.1301 147.954C90.8276 148.065 90.5847 148.224 90.4015 148.433C90.2225 148.638 90.133 148.911 90.133 149.251C90.133 149.724 90.3077 150.082 90.6571 150.325C91.0066 150.564 91.4519 150.683 91.9931 150.683ZM100.88 138.909V152H98.9684V138.909H100.88ZM56.3111 186.166H54.3168C54.2401 185.74 54.0973 185.365 53.8885 185.041C53.6797 184.717 53.424 184.442 53.1214 184.217C52.8189 183.991 52.4801 183.82 52.1051 183.705C51.7344 183.59 51.3402 183.533 50.9226 183.533C50.1683 183.533 49.4929 183.722 48.8963 184.102C48.304 184.481 47.8352 185.037 47.4901 185.77C47.1491 186.503 46.9787 187.398 46.9787 188.455C46.9787 189.52 47.1491 190.419 47.4901 191.152C47.8352 191.885 48.3061 192.439 48.9027 192.814C49.4993 193.189 50.1705 193.376 50.9162 193.376C51.3295 193.376 51.7216 193.321 52.0923 193.21C52.4673 193.095 52.8061 192.927 53.1087 192.705C53.4112 192.484 53.6669 192.213 53.8757 191.893C54.0888 191.57 54.2358 191.199 54.3168 190.781L56.3111 190.788C56.2045 191.431 55.9979 192.023 55.6911 192.565C55.3885 193.102 54.9986 193.566 54.5213 193.958C54.0483 194.346 53.5071 194.646 52.8977 194.859C52.2884 195.072 51.6236 195.179 50.9034 195.179C49.7699 195.179 48.7599 194.911 47.8736 194.374C46.9872 193.832 46.2884 193.059 45.777 192.053C45.2699 191.048 45.0163 189.848 45.0163 188.455C45.0163 187.057 45.272 185.857 45.7834 184.856C46.2947 183.85 46.9936 183.079 47.88 182.542C48.7663 182.001 49.7741 181.73 50.9034 181.73C51.598 181.73 52.2457 181.83 52.8466 182.031C53.4517 182.227 53.995 182.516 54.4766 182.9C54.9581 183.279 55.3565 183.744 55.6719 184.293C55.9872 184.839 56.2003 185.463 56.3111 186.166ZM60.4324 189.17V195H58.5211V181.909H60.4068V186.78H60.5282C60.7583 186.251 61.1099 185.832 61.5829 185.521C62.0559 185.21 62.6738 185.054 63.4366 185.054C64.1099 185.054 64.698 185.192 65.2008 185.469C65.7079 185.746 66.1 186.16 66.377 186.71C66.6582 187.255 66.7988 187.937 66.7988 188.755V195H64.8876V188.985C64.8876 188.265 64.7022 187.707 64.3315 187.31C63.9608 186.91 63.4451 186.71 62.7846 186.71C62.3329 186.71 61.9281 186.805 61.5701 186.997C61.2164 187.189 60.9373 187.47 60.7328 187.841C60.5325 188.207 60.4324 188.651 60.4324 189.17ZM72.2065 195.217C71.5843 195.217 71.0218 195.102 70.519 194.872C70.0162 194.638 69.6177 194.299 69.3237 193.856C69.0339 193.413 68.889 192.869 68.889 192.226C68.889 191.672 68.9956 191.216 69.2086 190.858C69.4217 190.5 69.7093 190.217 70.0716 190.008C70.4338 189.799 70.8386 189.641 71.286 189.535C71.7335 189.428 72.1895 189.347 72.6539 189.292C73.242 189.224 73.7193 189.168 74.0858 189.126C74.4522 189.079 74.7186 189.004 74.8848 188.902C75.051 188.8 75.1341 188.634 75.1341 188.403V188.359C75.1341 187.8 74.9764 187.368 74.661 187.061C74.35 186.754 73.8855 186.601 73.2676 186.601C72.6241 186.601 72.117 186.744 71.7463 187.029C71.3798 187.31 71.1262 187.624 70.9856 187.969L69.1895 187.56C69.4025 186.963 69.7136 186.482 70.1227 186.115C70.536 185.744 71.0112 185.476 71.5481 185.31C72.085 185.139 72.6497 185.054 73.242 185.054C73.6341 185.054 74.0495 185.101 74.4885 185.195C74.9316 185.284 75.345 185.45 75.7285 185.693C76.1163 185.936 76.4338 186.283 76.6809 186.735C76.9281 187.183 77.0517 187.764 77.0517 188.48V195H75.1852V193.658H75.1085C74.9849 193.905 74.7995 194.148 74.5524 194.386C74.3052 194.625 73.9877 194.823 73.6 194.981C73.2122 195.138 72.7477 195.217 72.2065 195.217ZM72.622 193.683C73.1504 193.683 73.6021 193.579 73.9771 193.37C74.3564 193.161 74.644 192.888 74.84 192.552C75.0403 192.211 75.1404 191.847 75.1404 191.459V190.193C75.0723 190.261 74.9402 190.325 74.7441 190.385C74.5524 190.44 74.3329 190.489 74.0858 190.532C73.8386 190.57 73.5978 190.607 73.3635 190.641C73.1291 190.67 72.9331 190.696 72.7754 190.717C72.4047 190.764 72.0659 190.843 71.7591 190.954C71.4565 191.065 71.2136 191.224 71.0304 191.433C70.8514 191.638 70.7619 191.911 70.7619 192.251C70.7619 192.724 70.9366 193.082 71.286 193.325C71.6355 193.564 72.0808 193.683 72.622 193.683ZM79.5973 195V185.182H81.4446V186.741H81.5469C81.7259 186.213 82.0412 185.798 82.4929 185.495C82.9489 185.188 83.4645 185.035 84.0398 185.035C84.1591 185.035 84.2997 185.039 84.4616 185.048C84.6278 185.056 84.7578 185.067 84.8516 185.08V186.908C84.7749 186.886 84.6385 186.863 84.4425 186.837C84.2464 186.808 84.0504 186.793 83.8544 186.793C83.4027 186.793 83 186.888 82.6463 187.08C82.2969 187.268 82.0199 187.53 81.8153 187.866C81.6108 188.199 81.5085 188.578 81.5085 189.004V195H79.5973ZM88.4167 181.909V195H86.5055V181.909H88.4167ZM93.8452 195.217C93.223 195.217 92.6605 195.102 92.1577 194.872C91.6548 194.638 91.2564 194.299 90.9624 193.856C90.6726 193.413 90.5277 192.869 90.5277 192.226C90.5277 191.672 90.6342 191.216 90.8473 190.858C91.0604 190.5 91.348 190.217 91.7102 190.008C92.0724 189.799 92.4773 189.641 92.9247 189.535C93.3722 189.428 93.8281 189.347 94.2926 189.292C94.8807 189.224 95.358 189.168 95.7244 189.126C96.0909 189.079 96.3572 189.004 96.5234 188.902C96.6896 188.8 96.7727 188.634 96.7727 188.403V188.359C96.7727 187.8 96.6151 187.368 96.2997 187.061C95.9886 186.754 95.5241 186.601 94.9062 186.601C94.2628 186.601 93.7557 186.744 93.3849 187.029C93.0185 187.31 92.7649 187.624 92.6243 187.969L90.8281 187.56C91.0412 186.963 91.3523 186.482 91.7614 186.115C92.1747 185.744 92.6499 185.476 93.1868 185.31C93.7237 185.139 94.2884 185.054 94.8807 185.054C95.2727 185.054 95.6882 185.101 96.1271 185.195C96.5703 185.284 96.9837 185.45 97.3672 185.693C97.755 185.936 98.0724 186.283 98.3196 186.735C98.5668 187.183 98.6903 187.764 98.6903 188.48V195H96.8239V193.658H96.7472C96.6236 193.905 96.4382 194.148 96.1911 194.386C95.9439 194.625 95.6264 194.823 95.2386 194.981C94.8509 195.138 94.3864 195.217 93.8452 195.217ZM94.2607 193.683C94.7891 193.683 95.2408 193.579 95.6158 193.37C95.995 193.161 96.2827 192.888 96.4787 192.552C96.679 192.211 96.7791 191.847 96.7791 191.459V190.193C96.7109 190.261 96.5788 190.325 96.3828 190.385C96.1911 190.44 95.9716 190.489 95.7244 190.532C95.4773 190.57 95.2365 190.607 95.0021 190.641C94.7678 190.67 94.5717 190.696 94.4141 190.717C94.0433 190.764 93.7045 190.843 93.3977 190.954C93.0952 191.065 92.8523 191.224 92.669 191.433C92.4901 191.638 92.4006 191.911 92.4006 192.251C92.4006 192.724 92.5753 193.082 92.9247 193.325C93.2741 193.564 93.7195 193.683 94.2607 193.683ZM56.3111 229.166H54.3168C54.2401 228.74 54.0973 228.365 53.8885 228.041C53.6797 227.717 53.424 227.442 53.1214 227.217C52.8189 226.991 52.4801 226.82 52.1051 226.705C51.7344 226.59 51.3402 226.533 50.9226 226.533C50.1683 226.533 49.4929 226.722 48.8963 227.102C48.304 227.481 47.8352 228.037 47.4901 228.77C47.1491 229.503 46.9787 230.398 46.9787 231.455C46.9787 232.52 47.1491 233.419 47.4901 234.152C47.8352 234.885 48.3061 235.439 48.9027 235.814C49.4993 236.189 50.1705 236.376 50.9162 236.376C51.3295 236.376 51.7216 236.321 52.0923 236.21C52.4673 236.095 52.8061 235.927 53.1087 235.705C53.4112 235.484 53.6669 235.213 53.8757 234.893C54.0888 234.57 54.2358 234.199 54.3168 233.781L56.3111 233.788C56.2045 234.431 55.9979 235.023 55.6911 235.565C55.3885 236.102 54.9986 236.566 54.5213 236.958C54.0483 237.346 53.5071 237.646 52.8977 237.859C52.2884 238.072 51.6236 238.179 50.9034 238.179C49.7699 238.179 48.7599 237.911 47.8736 237.374C46.9872 236.832 46.2884 236.059 45.777 235.053C45.2699 234.048 45.0163 232.848 45.0163 231.455C45.0163 230.057 45.272 228.857 45.7834 227.856C46.2947 226.85 46.9936 226.079 47.88 225.542C48.7663 225.001 49.7741 224.73 50.9034 224.73C51.598 224.73 52.2457 224.83 52.8466 225.031C53.4517 225.227 53.995 225.516 54.4766 225.9C54.9581 226.279 55.3565 226.744 55.6719 227.293C55.9872 227.839 56.2003 228.463 56.3111 229.166ZM58.5211 238V228.182H60.4324V238H58.5211ZM59.4863 226.667C59.1539 226.667 58.8684 226.556 58.6298 226.335C58.3954 226.109 58.2782 225.84 58.2782 225.529C58.2782 225.214 58.3954 224.945 58.6298 224.724C58.8684 224.498 59.1539 224.385 59.4863 224.385C59.8187 224.385 60.1021 224.498 60.3365 224.724C60.5751 224.945 60.6944 225.214 60.6944 225.529C60.6944 225.84 60.5751 226.109 60.3365 226.335C60.1021 226.556 59.8187 226.667 59.4863 226.667ZM67.1392 238.198C66.1889 238.198 65.3707 237.983 64.6847 237.553C64.0028 237.118 63.4787 236.519 63.1122 235.756C62.7457 234.994 62.5625 234.12 62.5625 233.136C62.5625 232.138 62.75 231.259 63.125 230.496C63.5 229.729 64.0284 229.13 64.7102 228.7C65.392 228.269 66.1953 228.054 67.12 228.054C67.8658 228.054 68.5305 228.192 69.1143 228.469C69.6982 228.742 70.169 229.126 70.527 229.62C70.8892 230.114 71.1044 230.692 71.1726 231.352H69.3125C69.2102 230.892 68.9759 230.496 68.6094 230.163C68.2472 229.831 67.7614 229.665 67.152 229.665C66.6193 229.665 66.1527 229.805 65.7521 230.087C65.3558 230.364 65.0469 230.76 64.8253 231.276C64.6037 231.787 64.4929 232.392 64.4929 233.091C64.4929 233.807 64.6016 234.425 64.8189 234.945C65.0362 235.464 65.343 235.867 65.7393 236.153C66.1399 236.438 66.6108 236.581 67.152 236.581C67.5142 236.581 67.8423 236.515 68.1364 236.383C68.4347 236.246 68.6839 236.053 68.8842 235.801C69.0888 235.55 69.2315 235.247 69.3125 234.893H71.1726C71.1044 235.528 70.8977 236.095 70.5526 236.594C70.2074 237.092 69.745 237.484 69.1655 237.77C68.5902 238.055 67.9148 238.198 67.1392 238.198ZM75.1277 224.909V238H73.2164V224.909H75.1277ZM81.8345 238.198C80.9141 238.198 80.1108 237.987 79.4247 237.565C78.7386 237.143 78.206 236.553 77.8267 235.795C77.4474 235.036 77.2578 234.15 77.2578 233.136C77.2578 232.117 77.4474 231.227 77.8267 230.464C78.206 229.701 78.7386 229.109 79.4247 228.687C80.1108 228.265 80.9141 228.054 81.8345 228.054C82.755 228.054 83.5582 228.265 84.2443 228.687C84.9304 229.109 85.4631 229.701 85.8423 230.464C86.2216 231.227 86.4112 232.117 86.4112 233.136C86.4112 234.15 86.2216 235.036 85.8423 235.795C85.4631 236.553 84.9304 237.143 84.2443 237.565C83.5582 237.987 82.755 238.198 81.8345 238.198ZM81.8409 236.594C82.4375 236.594 82.9318 236.436 83.3239 236.121C83.7159 235.805 84.0057 235.386 84.1932 234.862C84.3849 234.337 84.4808 233.76 84.4808 233.129C84.4808 232.503 84.3849 231.928 84.1932 231.403C84.0057 230.875 83.7159 230.451 83.3239 230.131C82.9318 229.812 82.4375 229.652 81.8409 229.652C81.2401 229.652 80.7415 229.812 80.3452 230.131C79.9531 230.451 79.6612 230.875 79.4695 231.403C79.282 231.928 79.1882 232.503 79.1882 233.129C79.1882 233.76 79.282 234.337 79.4695 234.862C79.6612 235.386 79.9531 235.805 80.3452 236.121C80.7415 236.436 81.2401 236.594 81.8409 236.594ZM56.8097 274.455C56.8097 275.852 56.554 277.054 56.0426 278.06C55.5313 279.061 54.8303 279.832 53.9396 280.374C53.0533 280.911 52.0455 281.179 50.9162 281.179C49.7827 281.179 48.7706 280.911 47.88 280.374C46.9936 279.832 46.2947 279.059 45.7834 278.053C45.272 277.048 45.0163 275.848 45.0163 274.455C45.0163 273.057 45.272 271.857 45.7834 270.856C46.2947 269.85 46.9936 269.079 47.88 268.542C48.7706 268.001 49.7827 267.73 50.9162 267.73C52.0455 267.73 53.0533 268.001 53.9396 268.542C54.8303 269.079 55.5313 269.85 56.0426 270.856C56.554 271.857 56.8097 273.057 56.8097 274.455ZM54.8537 274.455C54.8537 273.389 54.6811 272.492 54.3359 271.763C53.995 271.031 53.5263 270.477 52.9297 270.102C52.3374 269.722 51.6662 269.533 50.9162 269.533C50.1619 269.533 49.4886 269.722 48.8963 270.102C48.304 270.477 47.8352 271.031 47.4901 271.763C47.1491 272.492 46.9787 273.389 46.9787 274.455C46.9787 275.52 47.1491 276.419 47.4901 277.152C47.8352 277.881 48.304 278.435 48.8963 278.814C49.4886 279.189 50.1619 279.376 50.9162 279.376C51.6662 279.376 52.3374 279.189 52.9297 278.814C53.5263 278.435 53.995 277.881 54.3359 277.152C54.6811 276.419 54.8537 275.52 54.8537 274.455ZM63.7019 271.182V272.716H58.339V271.182H63.7019ZM59.7772 268.83H61.6884V278.117C61.6884 278.488 61.7438 278.767 61.8546 278.955C61.9654 279.138 62.1081 279.263 62.2828 279.332C62.4618 279.396 62.6557 279.428 62.8645 279.428C63.0179 279.428 63.1522 279.417 63.2672 279.396C63.3823 279.374 63.4718 279.357 63.5357 279.344L63.8809 280.923C63.7701 280.966 63.6124 281.009 63.4078 281.051C63.2033 281.098 62.9476 281.124 62.6408 281.128C62.138 281.136 61.6692 281.047 61.2346 280.859C60.7999 280.672 60.4483 280.382 60.1799 279.99C59.9114 279.598 59.7772 279.106 59.7772 278.513V268.83ZM65.8161 281V271.182H67.6634V272.741H67.7656C67.9446 272.213 68.2599 271.798 68.7116 271.495C69.1676 271.188 69.6832 271.035 70.2585 271.035C70.3778 271.035 70.5185 271.039 70.6804 271.048C70.8466 271.056 70.9766 271.067 71.0703 271.08V272.908C70.9936 272.886 70.8572 272.863 70.6612 272.837C70.4652 272.808 70.2692 272.793 70.0732 272.793C69.6214 272.793 69.2188 272.888 68.8651 273.08C68.5156 273.268 68.2386 273.53 68.0341 273.866C67.8295 274.199 67.7273 274.578 67.7273 275.004V281H65.8161ZM76.5083 281.198C75.5879 281.198 74.7846 280.987 74.0985 280.565C73.4125 280.143 72.8798 279.553 72.5005 278.795C72.1213 278.036 71.9316 277.15 71.9316 276.136C71.9316 275.117 72.1213 274.227 72.5005 273.464C72.8798 272.701 73.4125 272.109 74.0985 271.687C74.7846 271.265 75.5879 271.054 76.5083 271.054C77.4288 271.054 78.2321 271.265 78.9181 271.687C79.6042 272.109 80.1369 272.701 80.5162 273.464C80.8954 274.227 81.0851 275.117 81.0851 276.136C81.0851 277.15 80.8954 278.036 80.5162 278.795C80.1369 279.553 79.6042 280.143 78.9181 280.565C78.2321 280.987 77.4288 281.198 76.5083 281.198ZM76.5147 279.594C77.1113 279.594 77.6056 279.436 77.9977 279.121C78.3897 278.805 78.6795 278.386 78.867 277.862C79.0588 277.337 79.1547 276.76 79.1547 276.129C79.1547 275.503 79.0588 274.928 78.867 274.403C78.6795 273.875 78.3897 273.451 77.9977 273.131C77.6056 272.812 77.1113 272.652 76.5147 272.652C75.9139 272.652 75.4153 272.812 75.019 273.131C74.627 273.451 74.335 273.875 74.1433 274.403C73.9558 274.928 73.862 275.503 73.862 276.129C73.862 276.76 73.9558 277.337 74.1433 277.862C74.335 278.386 74.627 278.805 75.019 279.121C75.4153 279.436 75.9139 279.594 76.5147 279.594ZM90.5756 273.579L88.8434 273.886C88.771 273.664 88.6559 273.453 88.4982 273.253C88.3448 273.053 88.136 272.888 87.8718 272.761C87.6076 272.633 87.2773 272.569 86.881 272.569C86.3398 272.569 85.8881 272.69 85.5259 272.933C85.1637 273.172 84.9826 273.481 84.9826 273.86C84.9826 274.188 85.104 274.452 85.3469 274.653C85.5898 274.853 85.9819 275.017 86.5231 275.145L88.0827 275.503C88.9862 275.712 89.6594 276.033 90.1026 276.468C90.5458 276.903 90.7674 277.467 90.7674 278.162C90.7674 278.75 90.5969 279.274 90.256 279.734C89.9194 280.19 89.4485 280.548 88.8434 280.808C88.2425 281.068 87.5458 281.198 86.7532 281.198C85.6538 281.198 84.7567 280.964 84.0621 280.495C83.3675 280.022 82.9414 279.351 82.7837 278.482L84.631 278.2C84.7461 278.682 84.9826 279.046 85.3406 279.293C85.6985 279.536 86.1651 279.658 86.7404 279.658C87.3668 279.658 87.8675 279.528 88.2425 279.268C88.6175 279.004 88.805 278.682 88.805 278.303C88.805 277.996 88.69 277.738 88.4599 277.529C88.234 277.32 87.8867 277.163 87.418 277.056L85.756 276.692C84.8398 276.483 84.1623 276.151 83.7234 275.695C83.2887 275.239 83.0714 274.661 83.0714 273.962C83.0714 273.383 83.2333 272.876 83.5572 272.441C83.881 272.006 84.3285 271.668 84.8995 271.425C85.4705 271.178 86.1246 271.054 86.8619 271.054C87.9229 271.054 88.7582 271.284 89.3675 271.744C89.9769 272.2 90.3796 272.812 90.5756 273.579Z" fill="#3A3A3A"/>
<rect y="220" width="20" height="20" fill="#FF9548"/>
<rect y="261" width="20" height="20" fill="#C4C4C4"/>
<rect y="177" width="20" height="20" fill="#F5FF84"/>
<rect y="133" width="20" height="20" fill="#7A6DA0"/>
<rect y="89" width="20" height="20" fill="#FB8C8C"/>
<rect y="46" width="20" height="20" fill="#94AB51"/>
<rect y="3" width="20" height="20" fill="#A5E5E9"/>
</svg>
